<svg xmlns="http://www.w3.org/2000/svg" width="68.804" height="134.068" viewBox="0 0 68.804 134.068"><g transform="translate(-28.094 -8)"><g transform="translate(28.606 8.5)"><path d="M62.5,960.862a33.879,33.879,0,0,1,33.9,33.9c0,17.219-8.377,24.416-16.911,28.715-4.267,2.149-8.57,3.521-11.886,4.969a15.92,15.92,0,0,0-4.136,2.394,4.7,4.7,0,0,0-1.76,3.543v20.182H51.646v-24.539a6.089,6.089,0,0,1,1.316-3.943,11.337,11.337,0,0,1,3.661-2.844c3.122-1.668,7.431-2.946,11.792-4.685s8.8-3.957,12.162-7.635,5.6-8.818,5.6-16.157a23.675,23.675,0,0,0-47.336-.792H28.606A33.889,33.889,0,0,1,62.5,960.862Z" transform="translate(-28.606 -960.862)" fill="none" stroke="#000" stroke-width="1" fill-rule="evenodd"/><path d="M50.039,1032.16A10.059,10.059,0,1,0,60.1,1042.22,10.073,10.073,0,0,0,50.039,1032.16Z" transform="translate(-21.961 -919.211)" fill="none" stroke="#000" stroke-width="1" fill-rule="evenodd"/></g></g></svg>