<?xml version="1.0" standalone="no"?>
<!DOCTYPE svg PUBLIC "-//W3C//DTD SVG 1.1//EN" "http://www.w3.org/Graphics/SVG/1.1/DTD/svg11.dtd" >
<svg xmlns="http://www.w3.org/2000/svg" xmlns:xlink="http://www.w3.org/1999/xlink" version="1.1">
<metadata>
Created by FontForge 20170910 at Fri Jan  1 01:00:00 1904
 By Jimmy Wärting
a_FuturaOrtodoxalShadow *Arsenal Company (c)1996* FAX: (095)924-3775; e-Mail: arsenal@itco.msk.su; Phone: (095)924-5811 (Design and Featuring W.Chufarofsky &#38; M.Slutsker)
</metadata>
<defs>
<font id="a_FuturaOrtoSh-Bold" horiz-adv-x="630" >
  <font-face 
    font-family="a_FuturaOrtoSh"
    font-weight="700"
    font-stretch="normal"
    units-per-em="1000"
    panose-1="2 11 8 2 2 2 4 2 3 3"
    ascent="800"
    descent="-200"
    x-height="522"
    cap-height="732"
    bbox="-43 -327 1239 923"
    underline-thickness="42"
    underline-position="-201"
    unicode-range="U+0020-2219"
  />
<missing-glyph horiz-adv-x="657" 
d="M40 0v762h577v-762h-577zM80 40h497v682h-497v-682z" />
    <glyph glyph-name=".notdef" horiz-adv-x="657" 
d="M40 0v762h577v-762h-577zM80 40h497v682h-497v-682z" />
    <glyph glyph-name=".null" horiz-adv-x="0" 
 />
    <glyph glyph-name="nonmarkingreturn" horiz-adv-x="333" 
 />
    <glyph glyph-name="space" unicode=" " horiz-adv-x="250" 
 />
    <glyph glyph-name="exclam" unicode="!" horiz-adv-x="310" 
d="M84 754h144v-27h18v-550h-144v27h-18v550zM72 59q0 35 24 59t59 24q26 0 47 -14t30 -37q24 -24 24 -59q0 -34 -24 -58.5t-59 -24.5q-25 0 -45.5 13.5t-30.5 36.5q-25 23 -25 60zM216 742h-120v-526h120v526zM84 59q0 -31 20 -51t51 -20t51 20t20 51t-20 51t-51 20
t-51 -20t-20 -51z" />
    <glyph glyph-name="quotedbl" unicode="&#x22;" horiz-adv-x="375" 
d="M221 453v279h96v-27h18v-279h-96v27h-18zM58 453v279h96v-27h18v-279h-96v27h-18zM233 720v-255h72v255h-72zM70 720v-255h72v255h-72z" />
    <glyph glyph-name="numbersign" unicode="#" horiz-adv-x="750" 
d="M326 307h89l31 95h-89zM271 529l44 133h102l-9 -27h27l-34 -106h84l44 133h102l-9 -27h27l-34 -106h103l-9 -27h27l-34 -100h-130l-30 -94h107l-8 -27h26l-31 -100h-135l-46 -139h-101l9 27h-27l37 112h-86l-46 -139h-102l9 27h-27l36 112h-106l10 27h-28l36 100h130
l30 94h-111l9 27h-27l35 100h136zM330 441h142l-48 -146h-142zM324 650l-44 -133h-136l-27 -76h137l-46 -145h-131l-27 -76h132l-45 -139h77l46 139h139l-46 -139h75l46 139h135l24 76h-133l45 145h130l26 76h-129l43 133h-77l-44 -133h-136l43 133h-77z" />
    <glyph glyph-name="dollar" unicode="$" 
d="M294 -63v37q-64 6 -111 32.5t-73 73.5q-22 28 -34 65t-12 84h144v-14t1 -13h17q0 -20 3 -35.5t7 -27.5q20 -19 58 -22v209q-66 32 -104 61t-55 62q-19 24 -27.5 50.5t-8.5 59.5t13.5 65t38.5 57t61 42t82 20v50h42v-27h18v-26q50 -9 91 -36.5t63 -67.5q18 -22 28.5 -49.5
t10.5 -57.5h-142q0 7 -1.5 14t-2.5 13h-14q0 17 -4 28q-14 10 -29 13v-143l5 -2q81 -38 125 -72t64 -70q22 -27 30.5 -55.5t8.5 -61.5q0 -43 -15 -81.5t-44.5 -68t-73 -48.5t-100.5 -22v-63h-42v27h-18zM294 485v108q-40 -18 -40 -56q0 -7 0.5 -13.5t2.5 -12.5
q12 -12 37 -26zM426 219q0 18 -6 33q-20 20 -66 45v-177q35 7 53.5 30t18.5 69zM306 12v-63h18v62q59 4 103 21.5t73 45t43 64t14 78.5q0 32 -8 59.5t-30.5 54t-62 52.5t-102.5 55l-30 14v184q40 -8 57.5 -29t17.5 -42h118q0 31 -14.5 59t-40 50t-61 36.5t-77.5 18.5v49h-18
v-49q-48 -3 -84.5 -19t-61 -39.5t-37 -53.5t-12.5 -61q0 -33 8 -59t28.5 -49t55.5 -45t89 -47q1 0 3.5 -5l4.5 -9l6 -241q-58 4 -84 32t-26 81h-120q0 -97 59 -149t171 -56zM306 639v-175q-49 28 -65.5 50t-16.5 50q0 24 21 46t61 29zM438 219q0 -55 -28.5 -82t-85.5 -32
v239q35 -19 57 -34.5t35 -30t17.5 -29t4.5 -31.5z" />
    <glyph glyph-name="percent" unicode="%" horiz-adv-x="859" 
d="M378 511q0 -96 -44 -149.5t-123 -53.5q-98 0 -142 81q-45 54 -45 149q0 94 45 148t124 54q98 0 140 -78q45 -52 45 -151zM145 511q0 -57 14 -91q14 -14 34 -14q65 0 65 132q0 57 -14 91q-14 12 -33 12q-31 0 -48.5 -33.5t-17.5 -96.5zM700 713l-453 -760h-72l16 27h-34
l453 760h72l-16 -27h34zM835 157q0 -96 -44.5 -150t-124.5 -54q-49 0 -84.5 21t-56.5 59q-46 54 -46 151q0 94 45 147.5t124 53.5q99 0 142 -78q45 -53 45 -150zM600 155q0 -56 14 -90q13 -13 34 -13q67 0 67 132q0 56 -14 90q-14 13 -35 13q-32 0 -49 -34.5t-17 -97.5z
M348 538q0 93 -39.5 141.5t-115.5 48.5q-74 0 -115.5 -49t-41.5 -141q0 -93 41 -142t116 -49t115 49t40 142zM115 538q0 65 20.5 103.5t57.5 38.5t57 -38.5t20 -103.5q0 -67 -19.5 -105.5t-57.5 -38.5q-37 0 -57.5 39.5t-20.5 104.5zM222 -8l439 736h-44l-439 -736h44z
M805 184q0 93 -40.5 141t-116.5 48q-74 0 -115.5 -48.5t-41.5 -140.5q0 -93 41 -142.5t116 -49.5t116 49.5t41 142.5zM570 182q0 65 20.5 104.5t57.5 39.5q38 0 58.5 -38.5t20.5 -103.5q0 -67 -20.5 -105.5t-58.5 -38.5q-37 0 -57.5 39t-20.5 103z" />
    <glyph glyph-name="ampersand" unicode="&#x26;" horiz-adv-x="726" 
d="M728 -27h-168l-61 70q-41 -43 -86.5 -67.5t-107.5 -24.5q-83 0 -135 35.5t-78 81.5q-25 32 -36 67t-11 64q0 64 37 119t114 109q-3 4 -5.5 8.5t-5.5 8.5q-19 26 -35 59t-16 68q0 37 17 67.5t44.5 52.5t61.5 34.5t67 12.5q58 0 96 -24.5t57 -59.5q20 -24 30 -52.5
t10 -56.5q0 -47 -27.5 -87t-79.5 -79l84 -106l51 61h172l-23 -27h41l-139 -163l114 -144h-3zM289 100q14 0 25 2.5t23 9.5t27.5 20.5t37.5 34.5l-108 136q-47 -33 -64.5 -58.5t-17.5 -72.5q0 -27 9 -46q26 -26 68 -26zM297 545q0 -21 12 -42l2 -2t2 -3q23 20 31.5 36t8.5 41
q0 8 -2 18q-6 3 -12 3q-19 0 -30.5 -10t-11.5 -41zM547 12h138l-125 157l131 153h-140l-57 -68l-121 152q59 45 86.5 83.5t27.5 82.5q0 27 -9.5 54.5t-29.5 49.5t-51 36t-73 14q-32 0 -63.5 -11.5t-57 -31.5t-41.5 -48.5t-16 -63.5q0 -37 20.5 -74t48.5 -71
q-84 -59 -121 -112.5t-37 -114.5q0 -30 12.5 -66.5t40 -68t71 -53t106.5 -21.5q60 0 103.5 24t90.5 74zM289 88q-48 0 -77.5 32t-29.5 79q0 50 20.5 79.5t75.5 67.5l142 -178q-26 -26 -44 -41.5t-32.5 -24t-27 -11.5t-27.5 -3zM267 572q0 36 16 49.5t38 13.5
q19 0 31.5 -17.5t12.5 -42.5q0 -27 -11.5 -47t-41.5 -47q-45 54 -45 91z" />
    <glyph glyph-name="quotesingle" unicode="'" horiz-adv-x="250" 
d="M77 440v279h96v-27h18v-279h-96v27h-18zM89 707v-255h72v255h-72z" />
    <glyph glyph-name="parenleft" unicode="(" horiz-adv-x="250" 
d="M264 -248l-124 -35l-9 30l-9 -3q-47 143 -72.5 288.5t-25.5 274.5q0 130 25.5 275.5t72.5 288.5l124 -35q-2 -5 -3 -10l-2 -10l23 -7q-50 -187 -65.5 -317.5t-15.5 -211.5q0 -82 15.5 -211.5t65.5 -316.5zM130 -241l101 28q-47 179 -62.5 308t-15.5 212q0 82 15.5 212
t62.5 309l-101 28q-44 -134 -69 -277t-25 -272q0 -128 25 -271t69 -277z" />
    <glyph glyph-name="parenright" unicode=")" horiz-adv-x="250" 
d="M4 -221q50 187 65.5 316.5t15.5 211.5q0 81 -15.5 211.5t-65.5 317.5l124 35l9 -30l9 3q47 -143 72.5 -288.5t25.5 -275.5q0 -129 -25.5 -274.5t-72.5 -288.5l-124 35q2 5 3 10l2 10zM19 -213l101 -28q44 134 69 277t25 271q0 129 -25 272t-69 277l-101 -28
q47 -179 62.5 -309t15.5 -212q0 -83 -15.5 -212t-62.5 -308z" />
    <glyph glyph-name="asterisk" unicode="*" horiz-adv-x="486" 
d="M419 488l-7 -14l25 -13l-38 -70l-103 74l8 -126h-80l2 27h-20l5 83l-85 -59l-17 27h-1l-44 69l100 51l-80 42l8 13l-26 14l42 69l104 -75l-7 132h81l-2 -27h20l-5 -88l82 58l16 -28l2 1l40 -69l-95 -52zM111 434l117 80l-9 -136h54l-9 139l113 -81l26 47l-120 62l121 66
l-27 47l-113 -80l9 142h-55l7 -144l-113 82l-29 -47l124 -65l-126 -65z" />
    <glyph glyph-name="plus" unicode="+" horiz-adv-x="853" 
d="M376 378v254h101v-27h18v-227h231v-27h18v-100h-249v-256h-101v27h-18v229h-231v27h-18v100h249zM388 620v-254h-249v-76h249v-256h77v256h249v76h-249v254h-77z" />
    <glyph glyph-name="comma" unicode="," horiz-adv-x="288" 
d="M29 -126l64 274h166l-13 -27h31l-128 -274h-102l6 27h-24zM103 136l-59 -250h79l117 250h-137z" />
    <glyph glyph-name="hyphen" unicode="-" horiz-adv-x="375" 
d="M76 211v117h223v-27h18v-117h-223v27h-18zM88 316v-93h199v93h-199z" />
    <glyph glyph-name="period" unicode="." horiz-adv-x="288" 
d="M61 61q0 35 24.5 59t58.5 24q26 0 47 -14t30 -37q24 -24 24 -59q0 -34 -24 -58.5t-59 -24.5q-26 0 -46 13.5t-30 36.5q-25 23 -25 60zM73 61q0 -31 20 -51t51 -20q32 0 51.5 20t19.5 51t-19.5 51t-51.5 20q-31 0 -51 -20t-20 -51z" />
    <glyph glyph-name="slash" unicode="/" horiz-adv-x="422" 
d="M-36 -93l353 847h141l-11 -27h29l-353 -847h-141l11 27h-29zM325 742l-343 -823h115l343 823h-115z" />
    <glyph glyph-name="zero" unicode="0" 
d="M432 374q0 69 -9 118.5t-25 80.5q-27 29 -65 29q-55 0 -86 -62.5t-31 -194.5q0 -148 35 -213q26 -29 64 -29q55 0 86 64.5t31 206.5zM315 754q66 0 117.5 -33t85.5 -92q38 -51 58.5 -123.5t20.5 -160.5t-18.5 -160.5t-52.5 -124.5t-83 -80.5t-110 -28.5q-65 0 -115 32
t-85 90q-39 53 -60.5 129t-21.5 170q0 83 18.5 153t52.5 121t83 79.5t110 28.5zM444 374q0 -145 -34 -214t-95 -69t-95 69t-34 212q0 134 34 201.5t95 67.5t95 -67t34 -200zM315 742q-59 0 -105.5 -27t-79 -76t-50 -117t-17.5 -150q0 -87 17.5 -157.5t50 -120.5t79 -77
t105.5 -27t105.5 27t79 77t50 120.5t17.5 157.5q0 82 -17.5 150t-50 117t-79 76t-105.5 27z" />
    <glyph glyph-name="one" unicode="1" 
d="M534 -27h-405v27h-18v126h132v449h-74v27h-18v123h236v-27h18v-572h111v-27h18v-126zM123 12h381v102h-129v599h-212v-99h92v-500h-132v-102z" />
    <glyph glyph-name="two" unicode="2" 
d="M305 754q88 0 146 -33.5t86 -83.5q43 -55 43 -123q0 -31 -6.5 -58.5t-24.5 -60.5t-50 -76.5t-83 -106.5l-71 -86h238v-27h18v-126h-571l23 27h-41l279 321q41 47 65.5 78.5t37.5 55t17 41t4 36.5q0 22 -8 41q-30 30 -84 30q-28 0 -49.5 -6.5t-36.5 -23.5t-22.5 -46.5
t-7.5 -75.5h-147v23v4h-18v23q0 51 18 97t52 80.5t83 55t110 20.5zM571 114h-291l109 133q51 62 82.5 104.5t49 75t23.5 58.5t6 56q0 39 -15.5 75.5t-46 64t-76.5 44.5t-107 17q-59 0 -106 -19t-79 -51.5t-49 -76.5t-17 -94v-11h123q0 87 34.5 119.5t93.5 32.5
q50 0 86 -29.5t36 -80.5q0 -20 -4.5 -38.5t-18 -43t-38.5 -57t-66 -80.5l-262 -301h533v102z" />
    <glyph glyph-name="three" unicode="3" 
d="M36 227h145q0 -7 0.5 -13.5t1.5 -13.5h16q0 -40 11 -68q30 -30 97 -30q54 0 85 38t31 111q0 43 -14 71q-19 19 -51.5 29.5t-82.5 10.5h-89l19 27h-37l140 194h-215v27h-18v122h492l-20 -27h38l-165 -226q43 -14 72 -38.5t46 -54.5q28 -35 39 -77.5t11 -84.5
q0 -54 -19.5 -103t-54.5 -87t-83.5 -60.5t-107.5 -22.5q-85 0 -146 31t-93 89q-48 62 -48 156zM169 215h-121q0 -105 68.5 -165t188.5 -60q57 0 103.5 21t79.5 57t51.5 83.5t18.5 99.5q0 36 -8 71.5t-29 66.5t-58 55t-95 36l175 240h-456v-98h263l-159 -221h66
q52 0 86.5 -11.5t54.5 -31.5t28.5 -47.5t8.5 -59.5q0 -77 -35 -119t-93 -42q-72 0 -105 32.5t-33 92.5z" />
    <glyph glyph-name="four" unicode="4" 
d="M270 270h73v97zM506 -27h-145v27h-18v126h-316l21 27h-39l479 615v-50l18 23v-471h82v-27h18v-117h-100v-153zM355 258h-147l147 196v-196zM355 12h121v153h100v93h-100v475l-442 -568h321v-153z" />
    <glyph glyph-name="five" unicode="5" 
d="M559 698v-121h-302l-7 -97q22 4 37 6t25 2q79 0 136.5 -29.5t88.5 -84.5q48 -60 48 -153q0 -69 -21.5 -119.5t-57.5 -84t-84 -50t-102 -16.5q-82 0 -140 30t-86 83q-43 54 -43 133h140q0 -15 3 -27h15q0 -24 7 -39q30 -27 88 -27t86 32t28 113q0 40 -10 64q-29 31 -94 31
q-34 0 -83 -8t-132 -31l3 33l-21 -6l36 393h424v-27h18zM529 616v97h-401l-33 -365q71 20 118.5 27.5t82.5 7.5q71 0 102.5 -35t31.5 -99q0 -85 -32 -121t-94 -36q-56 0 -90.5 25.5t-34.5 67.5h-116q0 -88 63.5 -141.5t175.5 -53.5q52 0 98 15.5t80.5 47t54.5 80.5t20 115
q0 111 -65 169.5t-178 58.5q-11 0 -32 -3t-63 -12l11 155h301z" />
    <glyph glyph-name="six" unicode="6" 
d="M226 198q0 -40 12 -66q27 -28 75 -28q53 0 79 28.5t26 92.5q0 39 -13 68q-28 26 -74 26q-49 0 -77 -30t-28 -91zM352 732h167l-20 -27h38l-179 -243q62 -8 106.5 -38t70.5 -74q51 -65 51 -150q0 -50 -15.5 -95t-47 -79.5t-79 -54.5t-112.5 -20q-78 0 -134 32.5t-86 83.5
q-52 64 -52 152q0 33 4.5 61t19 61t42 75.5t73.5 105.5zM196 225q0 65 32 99t85 34q54 0 85.5 -34t31.5 -99q0 -133 -117 -133q-50 0 -83.5 32.5t-33.5 100.5zM495 720h-137l-149 -205q-46 -63 -73 -104.5t-41.5 -73.5t-18.5 -58.5t-4 -59.5q0 -46 16 -87.5t47 -73t76 -50
t103 -18.5q63 0 108.5 19t75 51t44 75.5t14.5 91.5q0 46 -16 86.5t-48.5 71.5t-81 49t-112.5 18z" />
    <glyph glyph-name="seven" unicode="7" 
d="M270 -27h-162l14 27h-32l287 572h-305v27h-18v126h547l-13 -27h31zM109 12h135l338 701h-516v-102h344z" />
    <glyph glyph-name="eight" unicode="8" 
d="M419 210q0 46 -13 73q-26 26 -73 26q-53 0 -78.5 -32.5t-25.5 -93.5q0 -30 10 -55q28 -26 76 -26q49 0 76.5 26.5t27.5 81.5zM586 183q0 -55 -19 -98t-53 -73t-80.5 -45.5t-100.5 -15.5q-77 0 -136 30.5t-90 87.5q-21 28 -33 63t-12 78q0 67 26 111t66 68q-20 18 -34 45
q-17 21 -28 49.5t-11 64.5q0 46 17.5 84t49 65t74 42t93.5 15q71 0 126 -28.5t83 -79.5q42 -51 42 -125q0 -52 -20 -87.5t-51 -57.5q30 -24 47 -55q20 -25 32 -59.5t12 -78.5zM316 447q44 0 66 27.5t22 73.5q0 21 -6 37q-25 22 -65 22q-41 0 -65.5 -22t-24.5 -64
q0 -30 9 -51q23 -23 62 -23h2zM431 210q0 -58 -31.5 -89t-84.5 -31t-84.5 31t-31.5 89q0 64 29 101t87 37t87 -37t29 -101zM556 210q0 68 -29 111.5t-86 72.5q47 28 71 64.5t24 89.5q0 44 -16 80t-45.5 61.5t-70 39t-89.5 13.5t-90 -13.5t-70 -39t-45.5 -61.5t-16.5 -80
q0 -53 24.5 -89.5t71.5 -64.5q-57 -29 -86 -72.5t-29 -111.5q0 -106 67.5 -163t173.5 -57t173.5 57t67.5 163zM316 435h-2q-48 0 -74.5 31.5t-26.5 81.5q0 46 29.5 72t72.5 26t72 -26t29 -72q0 -50 -26 -81.5t-74 -31.5z" />
    <glyph glyph-name="nine" unicode="9" 
d="M422 507q0 41 -12 66q-27 28 -75 28q-53 0 -79 -28.5t-26 -92.5q0 -39 13 -68q28 -26 74 -26q49 0 77 30t28 91zM296 -27h-167l20 27h-38l179 243q-63 7 -108.5 36.5t-70.5 74.5q-49 63 -49 151q0 50 15.5 95t47 79.5t79 54.5t112.5 20q78 0 134 -32.5t86 -83.5
q52 -64 52 -152q0 -33 -4.5 -61t-19 -61t-42 -75.5t-73.5 -105.5zM434 507q0 -65 -32 -99t-85 -34q-54 0 -85.5 34t-31.5 99q0 133 117 133q50 0 83.5 -32.5t33.5 -100.5zM135 12h137l149 205q46 63 73 104.5t41.5 73.5t18.5 58.5t4 59.5q0 46 -16 87.5t-47 73t-76 50
t-103 18.5q-63 0 -108.5 -19t-75 -51t-44 -75.5t-14.5 -91.5t15.5 -89t47.5 -71t80.5 -47.5t114.5 -17.5z" />
    <glyph glyph-name="colon" unicode=":" horiz-adv-x="300" 
d="M66 65q0 35 24 59t59 24q26 0 47 -14t30 -37q24 -24 24 -59q0 -34 -24 -58.5t-59 -24.5q-25 0 -45.5 13.5t-30.5 36.5q-25 23 -25 60zM67 439q0 35 24.5 59t58.5 24q26 0 47 -14t30 -37q24 -24 24 -59q0 -34 -24 -58.5t-59 -24.5q-26 0 -46 13.5t-30 36.5q-25 23 -25 60z
M78 65q0 -31 20 -51t51 -20t51 20t20 51t-20 51t-51 20t-51 -20t-20 -51zM79 439q0 -31 20 -51t51 -20q32 0 51.5 20t19.5 51t-19.5 51t-51.5 20q-31 0 -51 -20t-20 -51z" />
    <glyph glyph-name="semicolon" unicode=";" horiz-adv-x="300" 
d="M67 439q0 35 24.5 59t58.5 24q26 0 47 -14t30 -37q24 -24 24 -59q0 -34 -24 -58.5t-59 -24.5q-26 0 -46 13.5t-30 36.5q-25 23 -25 60zM17 -124l64 272h166l-13 -27h31l-128 -274l-102 2l6 27h-24zM79 439q0 -31 20 -51t51 -20q32 0 51.5 20t19.5 51t-19.5 51t-51.5 20
q-31 0 -51 -20t-20 -51zM91 136l-59 -248l79 -2l117 250h-137z" />
    <glyph glyph-name="less" unicode="&#x3c;" horiz-adv-x="853" 
d="M751 566v-121l-391 -157l373 -150v-20l18 -7v-120l-613 250v20l-18 7v74l613 251v-34zM721 480v95l-589 -241v-58l589 -240v94l-436 175z" />
    <glyph glyph-name="equal" unicode="=" horiz-adv-x="853" 
d="M130 279h593v-27h18v-103h-593v27h-18v103zM130 472h593v-27h18v-103h-593v27h-18v103zM711 267h-569v-79h569v79zM711 460h-569v-79h569v79z" />
    <glyph glyph-name="greater" unicode="&#x3e;" horiz-adv-x="853" 
d="M120 593l613 -251v-20l18 -7v-74l-613 -250v34l-18 -7v120l390 157l-372 150v20l-18 7v121zM721 334l-589 241v-95l435 -175l-435 -175v-94l589 240v58z" />
    <glyph glyph-name="question" unicode="?" horiz-adv-x="504" 
d="M219 531h-141q0 7 0.5 13.5t1.5 13.5h-20q0 42 14.5 78t41.5 62t66 41t88 15q64 0 106.5 -26t63.5 -66q40 -51 40 -120q0 -25 -5 -44.5t-21.5 -38.5t-46 -39.5t-79.5 -47.5q-45 -24 -64 -41t-19 -34v-2q7 -3 18 -3q40 0 40 42h139q0 -14 -3 -27h21q0 -26 -10.5 -52
t-33 -46.5t-58.5 -33.5t-86 -13q-61 0 -99.5 25t-54.5 58q-16 19 -24 40t-8 41q0 19 6 36t22.5 35.5t46 39.5t75.5 46q45 25 64 45t19 40q0 6 -1.5 11.5t-2.5 10.5q-14 11 -36 11q-34 0 -47 -19t-13 -51zM173 59q0 34 23.5 57.5t57.5 23.5q26 0 46 -14t29 -36q24 -24 24 -58
t-23.5 -57.5t-57.5 -23.5q-26 0 -46 13.5t-29 36.5q-24 24 -24 58zM72 570h117q0 26 16.5 48t55.5 22q34 0 52 -22.5t18 -49.5q0 -23 -21.5 -46.5t-67.5 -49.5q-46 -25 -74 -44.5t-43.5 -36t-21 -32.5t-5.5 -33q0 -21 9 -43t28 -40t48.5 -30t70.5 -12q48 0 81.5 11.5
t54.5 29t30.5 39t9.5 41.5h-115q0 -18 -14.5 -30t-37.5 -12q-21 0 -34.5 12.5t-13.5 31.5q0 38 89 86q48 26 77 45t44.5 36.5t20 35.5t4.5 42q0 35 -10.5 66.5t-32.5 55t-56 37.5t-81 14t-84 -13.5t-62.5 -37t-38.5 -54.5t-13 -67zM185 59q0 -30 19.5 -49.5t49.5 -19.5
q31 0 50 19.5t19 49.5t-19 49.5t-50 19.5q-30 0 -49.5 -19.5t-19.5 -49.5z" />
    <glyph glyph-name="at" unicode="@" horiz-adv-x="1000" 
d="M938 376q0 -84 -28.5 -155.5t-81.5 -118.5q-64 -58 -145 -58q-91 0 -91 80q-26 -37 -67 -58.5t-84 -21.5q-77 0 -122 46t-45 143q0 55 17.5 105t49 87.5t73.5 60t92 22.5q52 0 84 -21t53 -63l26 68h52l-67 -305q-8 -35 -8 -48q0 -44 47 -44q45 0 92 39q43 37 67.5 102.5
t24.5 136.5q0 68 -24.5 124.5t-69 97t-107.5 63t-140 22.5q-159 0 -269 -92q-73 -60 -111 -143t-38 -184q0 -91 29 -160.5t81 -116.5t122 -71t153 -24q73 0 152 23t141 65l21 -40q-67 -49 -152 -74.5t-162 -25.5q-186 0 -307 103q-69 59 -105 140.5t-36 187.5
q0 83 25.5 155.5t72.5 131.5q71 89 171 134t216 45q74 0 147 -23t128 -69q59 -48 91 -115.5t32 -150.5zM628 344q-7 56 -39 84.5t-77 28.5q-41 0 -73.5 -19t-55 -50.5t-34.5 -71.5t-12 -82q0 -64 27.5 -102t85.5 -38q27 0 52.5 11t46.5 31t36 47.5t22 61.5q0 1 3.5 16.5
t7.5 33t7 32.5t3 17z" />
    <glyph glyph-name="A" unicode="A" horiz-adv-x="684" 
d="M558 0l-59 135h-283l-72 -162h-150l13 27h-31l366 768l15 -32l3 5l366 -768h-150l-12 27h-6zM435 279l-78 176l-77 -176h155zM495 174l71 -162h123l-347 728l-347 -728h123l72 162h305zM232 267l110 252l111 -252h-221z" />
    <glyph glyph-name="B" unicode="B" horiz-adv-x="638" 
d="M84 0v732h219q22 0 51 -2.5t59 -11.5t57 -27.5t45 -50.5q19 -21 30 -52.5t11 -74.5q0 -35 -14.5 -69t-43.5 -57q45 -25 68 -69q42 -51 42 -121q0 -43 -14 -83.5t-44.5 -72t-80.5 -50t-122 -18.5h-245v27h-18zM244 582v-132h72q35 0 55 20t20 64q0 19 -4 31q-22 17 -73 17
h-70zM244 306v-183h75q71 0 96 27.5t25 73.5q0 30 -9 52q-28 30 -82 30h-105zM96 720v-708h233q69 0 117 17.5t77 46.5t42 67.5t13 80.5q0 56 -33 103t-112 73q53 30 73 66t20 74q0 64 -24 100t-59 54t-73 22t-67 4h-207zM214 438v183h82q33 0 54 -7.5t32.5 -19.5t16 -28
t4.5 -32q0 -48 -24 -72t-63 -24h-102zM214 111v234h117q60 0 90.5 -34.5t30.5 -86.5q0 -50 -29 -81.5t-104 -31.5h-105z" />
    <glyph glyph-name="C" unicode="C" horiz-adv-x="684" 
d="M657 153v-157q-90 -45 -208 -45q-112 0 -196 49t-133 129q-36 49 -55.5 109t-19.5 128q0 76 27.5 146.5t78.5 124t122.5 85.5t159.5 32q53 0 105 -9.5t101 -34.5v-19q5 -2 9 -4t9 -4v-157q-49 34 -99 51.5t-107 17.5q-48 0 -91 -19.5t-76 -54t-52 -81t-19 -101.5
q0 -41 9.5 -76.5t25.5 -65.5q32 -41 79 -64t105 -23t108 19t99 51v-38q5 3 9 5.5t9 5.5zM627 30v128q-36 -24 -85.5 -42t-109.5 -18q-55 0 -100.5 20t-78.5 56t-51.5 85t-18.5 107q0 57 20.5 106t55 85t79.5 56.5t95 20.5q59 0 108.5 -16.5t85.5 -41.5v127q-43 21 -92 30
t-102 9q-86 0 -155.5 -30.5t-118.5 -82.5t-75.5 -120t-26.5 -143q0 -79 26.5 -147.5t75 -119.5t118 -80t154.5 -29q58 0 108.5 10.5t87.5 29.5z" />
    <glyph glyph-name="D" unicode="D" horiz-adv-x="741" 
d="M84 0v732h222q134 0 218 -44t125 -117q34 -47 49.5 -106t15.5 -126q0 -79 -21 -146t-67.5 -116t-120.5 -76.5t-181 -27.5h-222v27h-18zM244 579v-453h53q69 0 117 14t77 43.5t42 75t13 107.5q0 45 -6.5 81t-20.5 63q-29 35 -78 52t-126 17h-71zM96 720v-708h210
q105 0 177 26t116.5 73t64.5 112t20 143q0 76 -20 141t-64.5 112.5t-116.5 74t-177 26.5h-210zM214 114v504h83q143 0 202 -60.5t59 -191.5q0 -128 -59 -190t-202 -62h-83z" />
    <glyph glyph-name="E" unicode="E" horiz-adv-x="567" 
d="M84 0v732h423v-27h18v-126h-279v-129h236v-27h18v-120h-254v-177h261v-27h18v-126h-423v27h-18zM96 720v-708h399v102h-279v228h254v96h-254v180h279v102h-399z" />
    <glyph glyph-name="F" unicode="F" horiz-adv-x="487" 
d="M84 0v732h391v-27h18v-126h-247v-135h207v-27h18v-123h-225v-321h-144v27h-18zM96 720v-708h120v321h225v99h-225v186h247v102h-367z" />
    <glyph glyph-name="G" unicode="G" horiz-adv-x="798" 
d="M427 304v123h291v-27h18v-373q-23 -13 -55.5 -26.5t-70 -24.5t-77 -18t-76.5 -7q-115 0 -201.5 45.5t-135.5 125.5q-36 48 -55.5 109.5t-19.5 133.5q0 94 30 166.5t85.5 122t134 75t175.5 25.5q61 0 128.5 -16.5t119.5 -40.5v-19q4 -2 9 -4t9 -4v-140q-57 32 -127 51.5
t-125 19.5q-120 0 -194 -69t-74 -194q0 -40 9 -76.5t26 -66.5q31 -43 79.5 -67t108.5 -24q37 0 74 9.5t64 24.5v139h-132v27h-18zM439 415v-99h150v-185q-32 -18 -71.5 -28.5t-78.5 -10.5q-56 0 -102.5 20.5t-80 57t-52 86.5t-18.5 109q0 65 20.5 116t57.5 86t88.5 54
t113.5 19q28 0 61 -5t65 -14t62 -20.5t52 -23.5v112q-46 22 -111.5 37.5t-124.5 15.5q-96 0 -172.5 -24.5t-130 -72.5t-82 -118.5t-28.5 -161.5q0 -85 26.5 -154.5t76 -118.5t120 -75.5t159.5 -26.5q36 0 75 7t75 17.5t66.5 23t50.5 23.5v354h-267z" />
    <glyph glyph-name="H" unicode="H" horiz-adv-x="768" 
d="M84 0v732h144v-27h18v-252h294v279h144v-27h18v-732h-144v27h-18v303h-294v-330h-144v27h-18zM96 720v-708h120v330h336v-330h120v708h-120v-279h-336v279h-120z" />
    <glyph glyph-name="I" unicode="I" horiz-adv-x="318" 
d="M87 0v732h144v-27h18v-732h-144v27h-18zM99 720v-708h120v708h-120z" />
    <glyph glyph-name="J" unicode="J" horiz-adv-x="355" 
d="M124 732h144v-27h18v-545q0 -97 -44 -151t-139 -54q-12 0 -38.5 4t-46.5 12v21q-5 2 -9.5 3t-8.5 3v129q34 -20 63 -20q36 0 48.5 18t12.5 71v536zM256 720h-120v-524q0 -56 -16 -78.5t-57 -22.5q-18 0 -32 4t-19 7v-100q14 -5 38 -8.5t35 -3.5q90 0 130.5 49.5
t40.5 143.5v533z" />
    <glyph glyph-name="K" unicode="K" horiz-adv-x="667" 
d="M513 -27l-268 366v-366h-143v27h-18v732h143v-27h18v-258l244 285h167l-24 -27h42l-301 -335l301 -370h-4l22 -27h-179zM219 398l282 -386h148l-312 383l292 325h-134zM215 12v382l4 4l-4 5v317h-119v-708h119z" />
    <glyph glyph-name="L" unicode="L" horiz-adv-x="486" 
d="M87 0v732h144v-27h18v-579h237v-27h18v-126h-399v27h-18zM99 720v-708h375v102h-255v606h-120z" />
    <glyph glyph-name="M" unicode="M" horiz-adv-x="866" 
d="M171 741l264 -503l278 530l8 -46l10 19l135 -768h-144l-4 27h-14l-50 322l-203 -385l-16 31l-2 -4l-197 373l-56 -364h-144l5 27h-23l135 768l17 -32zM433 208l-274 523l-127 -719h120l61 395l220 -417l220 417l61 -395h120l-127 719z" />
    <glyph glyph-name="N" unicode="N" horiz-adv-x="828" 
d="M84 0v768l519 -467v432h141v-27h18v-769l-519 468v-432h-141v27h-18zM96 741v-729h117v447l519 -468v730h-117v-447z" />
    <glyph glyph-name="O" unicode="O" horiz-adv-x="868" 
d="M452 -49q-107 0 -195 49.5t-138 132.5q-35 48 -54.5 107t-19.5 126q0 84 30 155t82.5 122.5t123.5 81t153 29.5q107 0 195 -49.5t138 -132.5q35 -48 54.5 -107t19.5 -126q0 -84 -30 -155t-82.5 -122.5t-123.5 -81t-153 -29.5zM434 110q53 0 96.5 18.5t74.5 52.5t48 81
t17 104q0 82 -34 144q-32 40 -79 62.5t-105 22.5q-53 0 -96.5 -18t-74.5 -51.5t-48 -81t-17 -105.5q0 -81 34 -143q32 -40 79 -63t105 -23zM434 -10q80 0 149 28t119.5 78t79.5 119t29 151t-29 151t-79.5 119t-119.5 78t-149 28t-149 -28t-119.5 -78t-79.5 -119t-29 -151
t29 -151t79.5 -119t119.5 -78t149 -28zM434 98q-55 0 -100.5 20t-78.5 55.5t-51 84.5t-18 108q0 60 18 109.5t51 84.5t78.5 54.5t100.5 19.5t100.5 -19.5t78.5 -54.5t51 -84.5t18 -109.5q0 -59 -18 -108t-51 -84.5t-78.5 -55.5t-100.5 -20z" />
    <glyph glyph-name="P" unicode="P" horiz-adv-x="606" 
d="M87 0v732h228q87 0 143.5 -28.5t84.5 -78.5q44 -55 44 -139q0 -44 -14 -84t-44 -70t-77.5 -47.5t-114.5 -17.5h-89v-294h-143v27h-18zM248 585v-170h57q72 0 95 23.5t23 74.5q0 27 -7 47q-13 12 -34.5 18.5t-55.5 6.5h-78zM99 720v-708h119v294h101q65 0 110 16.5
t73.5 44.5t41.5 65.5t13 80.5q0 96 -59 151.5t-183 55.5h-216zM218 403v221h90q75 0 101 -32t26 -79q0 -54 -26.5 -82t-103.5 -28h-87z" />
    <glyph glyph-name="Q" unicode="Q" horiz-adv-x="892" 
d="M464 -47q-54 0 -105 13t-95 37.5t-81 59.5t-63 78q-34 47 -54 104.5t-20 122.5q0 84 32 155t86.5 122t127.5 80t154 29q109 0 200.5 -50t143.5 -136q34 -46 54 -104t20 -123q0 -79 -29 -148.5t-76 -120.5l91 -106h-5l23 -27h-170l-47 55q-41 -18 -89.5 -29.5t-97.5 -11.5
zM446 101q49 0 95 20l-128 150h5l-23 27h167l86 -99q25 35 37.5 76t12.5 93q0 85 -37 148q-34 43 -84.5 66.5t-112.5 23.5q-54 0 -100.5 -18.5t-80 -53t-52.5 -83.5t-19 -110q0 -43 10 -80.5t27 -68.5q34 -44 84.5 -67.5t112.5 -23.5zM446 -8q48 0 96 11.5t94 32.5l50 -58
h138l-102 118q53 56 82.5 124.5t29.5 147.5q0 82 -31 151t-83.5 118.5t-123 77t-150.5 27.5t-150.5 -27.5t-123 -77t-83.5 -118.5t-31 -151t31 -151t83.5 -119t123 -78t150.5 -28zM446 89q-56 0 -104.5 20t-84 56.5t-55.5 88t-20 114.5t20 114t55.5 87.5t84 56t104.5 19.5
q57 0 105 -19.5t83.5 -56t55.5 -87.5t20 -114q0 -53 -14.5 -98t-46.5 -90l-92 106h-136l144 -167q-67 -30 -119 -30z" />
    <glyph glyph-name="R" unicode="R" horiz-adv-x="583" 
d="M84 0v732h219q21 0 50 -3t59 -14t58 -30.5t46 -52.5q20 -23 31.5 -55.5t11.5 -78.5q0 -49 -13 -83.5t-34 -58.5t-47 -38t-53 -22l200 -323h-168l-15 27h-3l-162 294h-18v-321h-144v27h-18zM246 584v-152h45q56 0 79.5 22t23.5 71q0 21 -6 38q-24 21 -79 21h-63zM96 720
v-708h120v321h40l177 -321h139l-197 318q32 9 60 23t49 37t33 55.5t12 79.5q0 66 -25 104.5t-61 59t-74.5 26t-65.5 5.5h-207zM216 420v203h75q60 0 87.5 -25.5t27.5 -72.5q0 -53 -27.5 -79t-87.5 -26h-75z" />
    <glyph glyph-name="S" unicode="S" horiz-adv-x="594" 
d="M37 218h150q0 -8 0.5 -14.5t1.5 -12.5h16q0 -42 10 -66q25 -24 80 -24q59 0 87.5 23t28.5 83q0 18 -6 35q-15 16 -42 32.5t-74 38.5q-75 35 -116.5 66.5t-60.5 66.5q-20 25 -29 52.5t-9 62.5q0 36 15 70.5t43.5 62t69.5 44t93 16.5q67 0 123 -31.5t83 -83.5
q38 -49 38 -108h-147q0 7 -1 14t-3 13h-14q0 15 -5 30q-21 16 -56 16q-37 0 -56 -19.5t-19 -44.5q0 -19 4 -31q14 -13 38 -26.5t64 -32.5q84 -40 129.5 -75t65.5 -73q22 -28 30.5 -57.5t8.5 -63.5q0 -47 -17 -89t-50 -73.5t-82.5 -49.5t-115.5 -18q-83 0 -141.5 28.5
t-88.5 85.5q-22 29 -34 67t-12 86zM175 206h-126q0 -106 65 -161t181 -55q64 0 111.5 17t79 46.5t47 69t15.5 85.5q0 34 -8 63t-31 56t-64 54.5t-106 57.5q-41 19 -66.5 34t-39.5 29t-19.5 29.5t-5.5 35.5q0 28 23 52t64 24q45 0 68 -22t23 -51h123q0 35 -17 66.5t-46.5 55
t-68.5 37t-82 13.5q-49 0 -88 -15.5t-66 -40.5t-41 -57.5t-14 -67.5t8.5 -62t30 -51t58 -47t93.5 -50q46 -21 75 -39t45 -34.5t21.5 -33.5t5.5 -37q0 -65 -33 -91.5t-95 -26.5q-60 0 -90 28t-30 89z" />
    <glyph glyph-name="T" unicode="T" horiz-adv-x="538" 
d="M197 0v579h-173v27h-18v126h526v-27h18v-126h-191v-606h-144v27h-18zM209 618v-606h120v606h191v102h-502v-102h191z" />
    <glyph glyph-name="U" unicode="U" horiz-adv-x="720" 
d="M80 732h144v-27h18v-482q0 -45 16 -77q36 -39 102 -39q68 0 102 39.5t34 103.5v482h144v-27h18v-482q0 -55 -19 -104.5t-55 -87t-88 -59t-118 -21.5q-84 0 -145.5 35t-95.5 92q-57 72 -57 172v482zM212 720h-120v-470q0 -54 18 -101.5t52.5 -82.5t84.5 -55.5t113 -20.5
t113 20.5t84.5 55.5t52.5 82.5t18 101.5v470h-120v-470q0 -68 -38 -111.5t-110 -43.5t-110 43.5t-38 111.5v470z" />
    <glyph glyph-name="V" unicode="V" horiz-adv-x="646" 
d="M323 -36l-326 768h153l10 -27h8l159 -413l169 440h153l-11 -27h29l-326 -768l-15 35zM15 720l308 -725l308 725h-127l-181 -471l-181 471h-127z" />
    <glyph glyph-name="W" unicode="W" horiz-adv-x="970" 
d="M708 -36l-208 462l-220 -489l-13 38l-5 -11l-258 769h145l9 -27h9l123 -386l195 439l15 -34l3 7l185 -416l133 417h145l-9 -27h27l-258 -769l-16 34zM264 -3l221 491l221 -491l243 724h-119l-143 -447l-202 455l-202 -455l-143 447h-119z" />
    <glyph glyph-name="X" unicode="X" horiz-adv-x="616" 
d="M460 0l-135 232l-151 -259h-159l16 27h-34l232 380l-215 352h159l16 -27h2l118 -205l134 232h159l-16 -27h34l-215 -352l232 -380h-159l-16 27h-2zM308 285l159 -273h131l-225 368l208 340h-131l-142 -246l-142 246h-131l208 -340l-225 -368h131z" />
    <glyph glyph-name="Y" unicode="Y" horiz-adv-x="586" 
d="M619 705l-236 -400v-332h-144v27h-18v332l-236 400h157l15 -27h3l135 -243l149 270h157l-16 -27h34zM353 335l227 385h-129l-158 -286l-158 286h-129l227 -385v-323h120v323z" />
    <glyph glyph-name="Z" unicode="Z" horiz-adv-x="602" 
d="M57 732h533l-16 -27h34l-340 -579h296v-27h18v-126h-564l16 27h-34l339 579h-264v27h-18v126zM569 720h-500v-102h307l-355 -606h531v102h-339z" />
    <glyph glyph-name="bracketleft" unicode="[" horiz-adv-x="375" 
d="M357 705h-133v-834h115v-27h18v-120h-270v27h-18v1101h270v-27h18v-120zM194 744h133v96h-246v-1077h246v96h-133v885z" />
    <glyph glyph-name="backslash" unicode="\" horiz-adv-x="422" 
d="M476 -120h-141l-11 27h-7l-353 847h141l11 -27h7zM325 -81h115l-343 823h-115z" />
    <glyph glyph-name="bracketright" unicode="]" horiz-adv-x="375" 
d="M36 732v120h270v-27h18v-1101h-270v27h-18v120h133v834h-115v27h-18zM48 840v-96h133v-885h-133v-96h246v1077h-246z" />
    <glyph glyph-name="asciicircum" unicode="^" horiz-adv-x="500" 
d="M267 601l-88 -120h-146l20 27h-38l178 246h114l177 -246h-1l19 -27h-146zM155 520l94 128l95 -128h117l-160 222h-102l-161 -222h117z" />
    <glyph glyph-name="underscore" unicode="_" horiz-adv-x="500" 
d="M-6 -138h512v-27h18v-108h-512v27h-18v108zM494 -150h-488v-84h488v84z" />
    <glyph glyph-name="grave" unicode="`" horiz-adv-x="250" 
d="M-30 754h187l16 -27h2l101 -170h-131l-157 170h7zM150 742h-153l135 -146h105z" />
    <glyph glyph-name="a" unicode="a" horiz-adv-x="675" 
d="M612 -27h-136v27h-18v23q-27 -38 -64 -54t-87 -16q-73 0 -124 30t-81 80q-30 38 -45 89t-15 109q0 59 19 110.5t52.5 89.5t78.5 59.5t97 21.5q61 0 102 -23t66 -66h1v69h136v-27h18v-522zM209 234q0 -52 18 -88q34 -40 92 -40q69 0 104 38t35 132q0 45 -18 78
q-16 18 -40 28t-55 10q-59 0 -97.5 -42t-38.5 -116zM470 12h112v498h-112v-69h-20q-27 46 -64.5 67.5t-96.5 21.5q-50 0 -93 -20.5t-74.5 -56.5t-49.5 -85.5t-18 -106.5t14 -106t43.5 -85.5t73.5 -57t104 -20.5q29 0 52.5 5.5t44.5 20.5t41.5 41.5t42.5 68.5v-116zM179 261
q0 77 42.5 123.5t105.5 46.5q70 0 106.5 -46t36.5 -109q0 -98 -39 -140t-112 -42q-61 0 -100.5 46t-39.5 121z" />
    <glyph glyph-name="b" unicode="b" horiz-adv-x="675" 
d="M81 0v825h138v-27h18v-303v-13q52 60 148 60q65 0 119 -33.5t87 -89.5q29 -37 44.5 -84t15.5 -101q0 -58 -15.5 -109t-46 -89.5t-77 -60.5t-109.5 -22q-57 0 -97 20.5t-68 70.5q-1 2 -2 3t-2 3v-77h-135v27h-18zM485 261q0 26 -5.5 48.5t-15.5 40.5q-37 42 -98 42
q-65 0 -98.5 -41.5t-33.5 -101.5q0 -66 18 -105q34 -38 105 -38q58 0 93 41.5t35 113.5zM93 813v-801h111v116q22 -42 42.5 -68.5t41.5 -41.5t44.5 -20.5t52.5 -5.5q60 0 104.5 21t73.5 57t43.5 85t14.5 106t-18 106.5t-50 85.5t-75 56.5t-93 20.5q-59 0 -96.5 -21.5
t-64.5 -67.5h-20q0 27 1.5 44t1.5 37v291h-114zM497 261q0 -75 -39.5 -121t-100.5 -46q-73 0 -113 42t-40 140q0 63 37 109t107 46q63 0 106 -46.5t43 -123.5z" />
    <glyph glyph-name="c" unicode="c" horiz-adv-x="528" 
d="M42 260q0 60 22.5 112t62.5 89.5t94.5 59t117.5 21.5q37 0 75 -8.5t75 -24.5v-20q5 -1 9 -3t9 -4v-144q-35 20 -73 34t-67 14q-79 0 -118.5 -40t-39.5 -113q0 -47 15 -79q39 -43 125 -43q29 0 67 12t73 39v-40q5 3 9 6.5t9 6.5v-147q-37 -16 -74.5 -24.5t-75.5 -8.5
q-86 0 -155.5 36.5t-106.5 102.5q-25 33 -39 75t-14 91zM54 260q0 -62 21.5 -111t60 -83.5t90.5 -53t113 -18.5q37 0 72 8t66 21v114q-22 -17 -60 -27.5t-68 -10.5q-170 0 -170 161q0 76 43.5 120.5t126.5 44.5q30 0 68 -13t60 -26v115q-31 13 -66 21t-72 8
q-61 0 -113.5 -20t-90.5 -56t-59.5 -86t-21.5 -108z" />
    <glyph glyph-name="d" unicode="d" horiz-adv-x="675" 
d="M612 -27h-135v27h-18v23q-27 -38 -64 -54t-87 -16q-74 0 -125 30t-81 80q-31 38 -45.5 89t-14.5 109q0 59 19.5 110.5t53 89.5t78.5 59.5t97 21.5q61 0 101.5 -23t66.5 -66h1q0 17 -1.5 32.5t-1.5 36.5v303h138v-27h18v-825zM208 234q0 -50 19 -88q35 -40 93 -40
q69 0 104 38t35 132q0 45 -18 78q-17 18 -40 28t-55 10q-59 0 -98.5 -42t-39.5 -116zM471 12h111v801h-114v-291q0 -20 1.5 -37t1.5 -44h-20q-27 46 -65 67.5t-96 21.5q-50 0 -93 -20.5t-75 -56.5t-50 -85.5t-18 -106.5t14.5 -106t43.5 -85t73.5 -57t104.5 -21q28 0 52 5.5
t45 20.5t41.5 41.5t42.5 68.5v-116zM178 261q0 77 43.5 123.5t106.5 46.5q70 0 106.5 -46t36.5 -109q0 -98 -39 -140t-112 -42q-62 0 -102 45.5t-40 121.5z" />
    <glyph glyph-name="e" unicode="e" horiz-adv-x="642" 
d="M342 404q-32 0 -61.5 -16t-49.5 -45h223q-2 4 -4 7t-3 6q-40 48 -105 48zM621 228h-417q0 -53 19 -90q36 -41 101 -41q51 0 80 16.5t41 50.5h142q-3 -8 -5.5 -14t-5.5 -13h29q-36 -97 -99.5 -140.5t-163.5 -43.5q-86 0 -147 36t-95 94q-58 75 -58 178q0 57 21.5 108.5
t59 89.5t89 60.5t112.5 22.5q80 0 142.5 -32t97.5 -94q27 -35 42 -82.5t15 -105.5zM324 443q47 0 85 -27t64 -85h-293q25 58 64 85t80 27zM174 267h417q0 62 -19.5 111t-54.5 82.5t-84.5 51.5t-108.5 18t-108.5 -21t-85.5 -58t-56 -86t-20 -104t17.5 -104t52 -85.5t85 -58
t115.5 -21.5q98 0 156.5 39t89.5 121h-117q-11 -31 -43.5 -49t-85.5 -18q-74 0 -112 51t-38 131z" />
    <glyph glyph-name="f" unicode="f" horiz-adv-x="308" 
d="M83 0v375h-56v27h-18v120h74v133q0 106 36 148t110 42q16 0 40.5 -3t62.5 -17v-21l18 -6v-117q-18 9 -30 13t-32 4q-21 0 -35 -15.5t-14 -57.5v-103h93v-27h18v-120h-111v-402h-138v27h-18zM95 414v-402h114v402h111v96h-111v142q0 46 18.5 65.5t42.5 19.5
q22 0 33.5 -3.5t16.5 -6.5v90q-31 11 -53 13.5t-38 2.5q-71 0 -102.5 -38t-31.5 -140v-145h-74v-96h74z" />
    <glyph glyph-name="g" unicode="g" horiz-adv-x="675" 
d="M612 495v-537q0 -146 -63 -215.5t-205 -69.5q-85 0 -147 25t-92 82q-21 26 -32 61t-11 82h141v-14t1 -13h17q0 -39 8 -59q14 -13 38 -17.5t59 -4.5q63 0 97 39t34 131v37q-25 -32 -62.5 -46.5t-87.5 -14.5q-67 0 -122 27.5t-87 83.5q-26 33 -41 80.5t-15 108.5
q0 129 66 205t181 76q58 0 100 -21.5t72 -73.5v75h133v-27h18zM208 234q0 -50 19 -86q38 -43 100 -43q65 0 97.5 40.5t32.5 100.5q0 76 -19 115q-31 34 -101 34q-57 0 -93 -39.5t-36 -121.5zM582 -15v525h-109v-108q-23 39 -44 64t-43 39.5t-45.5 19.5t-51.5 5
q-111 0 -173 -71.5t-62 -197.5q0 -68 17.5 -117t49 -81t74.5 -47.5t94 -15.5q29 0 53 5t45.5 19t41 38t40.5 63v-140q0 -96 -38 -139t-105 -43q-72 0 -103.5 23.5t-31.5 84.5h-117q0 -108 68 -153.5t184 -45.5q138 0 197 65t59 208zM178 261q0 86 40 129.5t101 43.5
q79 0 114.5 -44t35.5 -144q0 -63 -36.5 -108t-105.5 -45q-62 0 -105.5 45.5t-43.5 122.5z" />
    <glyph glyph-name="h" unicode="h" horiz-adv-x="643" 
d="M81 0v825h138v-27h18v-314q29 32 71 45t77 13q52 0 89.5 -22t59.5 -61q49 -58 49 -162v-324h-138v27h-18v305q0 47 -11 74q-10 9 -24 12.5t-30 3.5q-52 0 -88.5 -30.5t-36.5 -108.5v-283h-138v27h-18zM93 813v-801h114v271q0 83 41 117t96 34q40 0 67.5 -26.5
t27.5 -102.5v-293h114v312q0 96 -42.5 151t-125.5 55q-19 0 -42 -4.5t-46.5 -17.5t-46.5 -36t-43 -60v401h-114z" />
    <glyph glyph-name="i" unicode="i" horiz-adv-x="300" 
d="M237 -27h-138v27h-18v522h138v-27h18v-522zM70 674q0 33 24 57.5t56 24.5q25 0 44.5 -14t28.5 -36q25 -25 25 -59q0 -32 -23.5 -55t-56.5 -23q-25 0 -45.5 14.5t-29.5 36.5q-23 23 -23 54zM93 12h114v498h-114v-498zM82 674q0 -28 20 -47t48 -19q29 0 48.5 19t19.5 47
q0 29 -19.5 49.5t-48.5 20.5q-28 0 -48 -20.5t-20 -49.5z" />
    <glyph glyph-name="j" unicode="j" horiz-adv-x="300" 
d="M237 -327h-138v27h-18v822h138v-27h18v-822zM70 674q0 33 24 57.5t56 24.5q25 0 44.5 -14t28.5 -36q25 -25 25 -59q0 -32 -23.5 -55t-56.5 -23q-25 0 -45.5 14.5t-29.5 36.5q-23 23 -23 54zM93 -288h114v798h-114v-798zM82 674q0 -28 20 -47t48 -19q29 0 48.5 19t19.5 47
q0 29 -19.5 49.5t-48.5 20.5q-28 0 -48 -20.5t-20 -49.5z" />
    <glyph glyph-name="k" unicode="k" horiz-adv-x="569" 
d="M81 0v826h137v-27h18v-446l130 169h173l-23 -27h41l-206 -242l224 -253h-6l24 -27h-179l-178 219v-219h-137v27h-18zM93 814v-802h113v241l196 -241h146l-234 265l199 233h-141l-166 -215v519h-113z" />
    <glyph glyph-name="l" unicode="l" horiz-adv-x="304" 
d="M83 1v824h138v-27h18v-824h-138v27h-18zM95 813v-800h114v800h-114z" />
    <glyph glyph-name="m" unicode="m" horiz-adv-x="934" 
d="M236 -27h-137v27h-18v522h133v-27h18v-19q26 33 64 49.5t80 16.5q52 0 87 -24.5t55 -61.5l3 -3t2 -3q24 43 66.5 67.5t77.5 24.5q113 0 161 -86q46 -57 46 -157v-326h-137v27h-18v326q0 29 -8 50q-13 13 -30 17.5t-33 4.5q-39 0 -66 -29.5t-27 -109.5v-286h-137v27h-18
v326q0 30 -10 53q-12 11 -27.5 15t-31.5 4q-41 0 -68 -33.5t-27 -105.5v-286zM93 12h113v274q0 76 31.5 113.5t75.5 37.5q17 0 34.5 -5t31.5 -17.5t23.5 -34t9.5 -54.5v-314h113v274q0 85 31.5 118t73.5 33q15 0 33 -4.5t33 -16.5t25 -34t10 -56v-314h113v314
q0 100 -45.5 152t-131.5 52q-33 0 -74 -25.5t-72 -81.5q-25 53 -59.5 80t-85.5 27q-48 0 -91 -26.5t-83 -104.5v111h-109v-498z" />
    <glyph glyph-name="n" unicode="n" horiz-adv-x="638" 
d="M81 0v522h133v-27h18v-25q31 34 74 53t78 19q51 0 87 -21.5t58 -59.5q49 -58 49 -164v-324h-138v27h-18v305q0 49 -10 75q-18 15 -51 15q-53 0 -89 -30.5t-36 -108.5v-283h-137v27h-18zM93 510v-498h113v271q0 83 41 117t96 34q41 0 66 -26.5t25 -102.5v-293h114v312
q0 96 -41 151t-123 55q-38 0 -88.5 -28t-93.5 -97v105h-109z" />
    <glyph glyph-name="o" unicode="o" horiz-adv-x="658" 
d="M208 234q0 -49 19 -85q38 -43 102 -43q59 0 99 39t40 116q0 49 -19 85q-38 43 -102 43q-59 0 -99 -39t-40 -116zM347 -47q-85 0 -149.5 38.5t-99.5 100.5q-26 35 -41 78.5t-15 90.5q0 57 21 108.5t59 89.5t90.5 60.5t116.5 22.5q85 0 149.5 -39t99.5 -100
q26 -35 41 -78.5t15 -90.5q0 -57 -21 -108.5t-59 -89.5t-90.5 -60.5t-116.5 -22.5zM178 261q0 41 12 72t32.5 52t48 32t58.5 11t58.5 -11t48 -32t32.5 -52t12 -72t-12 -72t-32.5 -52t-48 -32t-58.5 -11t-58.5 11t-48 32t-32.5 52t-12 72zM329 -8q62 0 112.5 21t86.5 58
t56 86t20 104t-20 104t-56 86t-86.5 58t-112.5 21t-112.5 -21t-86.5 -58t-56 -86t-20 -104t20 -104t56 -86t86.5 -58t112.5 -21z" />
    <glyph glyph-name="p" unicode="p" horiz-adv-x="675" 
d="M81 522h135v-27h18v-19q26 35 63 50.5t87 15.5q74 0 125 -30t81 -79q31 -38 46 -89.5t15 -109.5q0 -67 -19.5 -119t-53 -88t-79 -55t-97.5 -19q-60 0 -101 22t-67 65q0 -16 1.5 -31.5t1.5 -35.5v-300h-138v27h-18v822zM485 261q0 55 -19 95q-33 39 -94 39q-29 0 -54.5 -9
t-44 -29.5t-29 -54t-10.5 -83.5q0 -43 17 -75q35 -38 95 -38t99.5 35t39.5 120zM204 510h-111v-798h114v288q0 10 -0.5 19t-1 21t-1 29t-0.5 42q41 -69 81.5 -94t98.5 -25q50 0 93.5 17.5t75.5 52t50 84.5t18 115q0 57 -14.5 106t-43.5 85t-74 57t-105 21q-28 0 -52 -5.5
t-45 -20t-41.5 -40t-41.5 -66.5v112zM497 261q0 -90 -44 -128.5t-107 -38.5q-68 0 -105 44.5t-37 107.5q0 52 12 88t32.5 58t47.5 32t58 10q65 0 104 -45t39 -128z" />
    <glyph glyph-name="q" unicode="q" horiz-adv-x="675" 
d="M612 495v-822h-138v27h-18v300v11q-52 -58 -147 -58q-66 0 -121 30t-88 87q-28 35 -43 83.5t-15 107.5q0 58 15.5 109t46 89.5t77.5 60.5t110 22q57 0 97 -20t67 -68q1 -2 2 -3l2 -2v73h135v-27h18zM208 234q0 -55 16 -87q19 -22 46 -31.5t59 -9.5q64 0 97 40t33 100
q0 35 -5.5 62t-15.5 47q-19 22 -44 31t-55 9q-61 0 -96 -40.5t-35 -120.5zM582 -288v798h-111v-112q-21 41 -41.5 66.5t-41.5 40t-44.5 20t-52.5 5.5q-60 0 -105 -21t-74 -57t-43.5 -85t-14.5 -106q0 -65 18 -115t50 -84.5t75.5 -52t93.5 -17.5q58 0 98.5 25t81.5 94
q0 -25 -0.5 -42t-1 -29t-1 -21t-0.5 -19v-288h114zM178 261q0 83 39 128t104 45q31 0 58 -10t47.5 -32t32.5 -58t12 -88q0 -63 -37 -107.5t-105 -44.5q-63 0 -107 38.5t-44 128.5z" />
    <glyph glyph-name="r" unicode="r" horiz-adv-x="414" 
d="M237 -27h-138v27h-18v522h135v-27h18v-11q40 56 97 56q21 0 38.5 -5t32.5 -13v-19q4 -1 9 -3.5l9 -4.5v-122q-34 17 -72 17q-15 0 -34 -6t-36.5 -22.5t-29 -45.5t-11.5 -76v-267zM93 12h114v255q0 50 13.5 81.5t32.5 49.5t40 24.5t37 6.5q20 0 38 -4t22 -6v96
q-10 5 -25 9t-34 4q-31 0 -61 -26t-66 -103v111h-111v-498z" />
    <glyph glyph-name="s" unicode="s" horiz-adv-x="502" 
d="M458 344h-133q0 16 -3 27h-15q0 15 -3 26q-12 6 -32 6q-58 0 -58 -44v-8q16 -11 48 -21q60 -20 111 -46t74 -71q16 -18 25 -40.5t9 -51.5q0 -34 -12 -64.5t-37 -53.5t-63.5 -36.5t-91.5 -13.5q-71 0 -122.5 20.5t-76.5 68.5q-39 45 -39 126h135q0 -15 3 -27h15
q0 -19 4 -31q21 -16 59 -16q34 0 52 16t18 42q0 9 -1 13q-10 8 -27 15t-43 15q-68 23 -105 45t-53 54q-18 20 -25 44t-7 55q0 37 17.5 65t46 46.5t63.5 27.5t70 9q41 0 87 -21.5t72 -67.5q17 -20 27.5 -47t10.5 -61zM319 383h109q0 38 -16 65.5t-41 45.5t-54.5 26.5
t-55.5 8.5q-34 0 -67 -8.5t-59.5 -25.5t-42.5 -42.5t-16 -59.5q0 -31 7 -53.5t25.5 -41t50 -34t81.5 -31.5t73.5 -31.5t23.5 -49.5q0 -30 -22.5 -50t-59.5 -20q-49 0 -71 22.5t-22 51.5h-111q0 -89 55 -126.5t153 -37.5q51 0 87.5 12.5t59.5 33.5t34 49.5t11 60.5
q0 37 -15.5 63.5t-41.5 46t-61.5 34t-74.5 27.5q-44 14 -59 30.5t-15 36.5q0 26 19 41t51 15q30 0 47.5 -13.5t17.5 -45.5z" />
    <glyph glyph-name="t" unicode="t" horiz-adv-x="309" 
d="M85 0v375h-49v27h-18v120h67v168h137v-27h18v-141h81v-27h18v-120h-99v-402h-137v27h-18zM97 414v-402h113v402h99v96h-99v168h-113v-168h-67v-96h67z" />
    <glyph glyph-name="u" unicode="u" horiz-adv-x="618" 
d="M402 522h137v-27h18v-312q0 -45 -14 -86.5t-42.5 -73.5t-71.5 -51t-102 -19q-74 0 -124 30t-76 78q-24 31 -36 69.5t-12 79.5v312h137v-27h18v-311q0 -37 9 -61q21 -20 66 -20q48 0 70.5 23.5t22.5 84.5v311zM527 510h-113v-299q0 -65 -26.5 -92.5t-78.5 -27.5
q-51 0 -78 27.5t-27 92.5v299h-113v-300q0 -44 13 -83t40 -69t68 -48t97 -18t97 18t68 48t40 69t13 83v300z" />
    <glyph glyph-name="v" unicode="v" horiz-adv-x="522" 
d="M261 -27l-270 549h144l12 -27h6l111 -246l123 273h144l-13 -27h31l-270 -549l-16 32zM10 510l251 -510l251 510h-117l-134 -296l-134 296h-117z" />
    <glyph glyph-name="w" unicode="w" horiz-adv-x="786" 
d="M-6 522h144l10 -27h8l90 -236l147 283l16 -31l2 4l135 -261l102 268h144l-11 -27h29l-228 -549l-16 31l-2 -4l-155 293l-169 -320l-14 34l-4 -7zM393 516l-153 -295l-110 289h-118l211 -509l170 322l170 -322l211 509h-118l-110 -289z" />
    <glyph glyph-name="x" unicode="x" horiz-adv-x="552" 
d="M413 -27l-119 168l-119 -168h-158l20 27h-38l198 267l-170 228h2l-20 27h156l111 -150l111 150h156l-20 -27h38l-188 -253l180 -242h-2l20 -27h-158zM276 189l125 -177h128l-190 256l180 242h-126l-117 -158l-117 158h-126l180 -242l-190 -256h128z" />
    <glyph glyph-name="y" unicode="y" horiz-adv-x="583" 
d="M100 -300l132 312l-232 510h150l12 -27h6l138 -309l142 336h144l-11 -27h29l-346 -822h-146l11 27h-29zM245 12l-127 -300h120l336 798h-118l-153 -361l-161 361h-123z" />
    <glyph glyph-name="z" unicode="z" horiz-adv-x="502" 
d="M30 522h462l-17 -27h35l-242 -375h205v-27h18v-120h-476l18 27h-36l244 375h-193v27h-18v120zM470 510h-428v-96h239l-262 -402h442v96h-250z" />
    <glyph glyph-name="braceleft" unicode="{" horiz-adv-x="500" 
d="M462 -157v-120h-64q-72 0 -113.5 21t-61.5 60q-24 28 -33.5 69t-9.5 93v184q0 30 -8 51q-18 15 -46 15h-48v27h-18v116h50q32 0 51 22.5t19 70.5v184q0 51 9 91t31 68t61 42.5t99 14.5h64v-27h18v-120h-60q-18 0 -29.5 -2.5t-18 -11.5t-8.5 -26t-2 -45v-183
q0 -71 -20.5 -104t-51.5 -51q10 -8 18.5 -18t15.5 -23q17 -19 27.5 -49.5t10.5 -79.5v-184q0 -37 4 -53q10 -5 34 -5h62v-27h18zM432 -238v96h-50q-39 0 -53.5 18.5t-14.5 78.5v184q0 74 -25.5 106.5t-77.5 54.5q26 13 45.5 26.5t32 31.5t19 43t6.5 63v183q0 61 15 79t55 18
h48v96h-52q-57 0 -93.5 -13t-57.5 -39t-29 -64t-8 -88v-184q0 -52 -23.5 -78.5t-58.5 -26.5h-38v-92h36q37 0 60.5 -26t23.5 -79v-184q0 -50 8 -88t29 -63.5t57.5 -39t93.5 -13.5h52z" />
    <glyph glyph-name="bar" unicode="|" horiz-adv-x="500" 
d="M186 774h128v-27h18v-1008h-128v27h-18v1008zM302 762h-104v-984h104v984zM1 -326v-1h-1v1h1z" />
    <glyph glyph-name="braceright" unicode="}" horiz-adv-x="500" 
d="M56 -130h62q35 0 45.5 14.5t10.5 70.5v184q0 70 20.5 104.5t51.5 50.5q-10 8 -18.5 18t-15.5 23q-17 19 -27.5 49t-10.5 80v183q0 37 -4 53q-11 5 -36 5h-60v27h-18v120h64q72 0 113.5 -21t61.5 -60q24 -28 33.5 -68.5t9.5 -93.5v-184q0 -30 8 -51q18 -15 44 -15h50v-27
h18v-116h-48q-33 0 -52.5 -22t-19.5 -71v-184q0 -51 -9 -91t-31 -67.5t-61 -42.5t-99 -15h-64v27h-18v120zM118 -142h-50v-96h52q57 0 93.5 13.5t57.5 39t29 63.5t8 88v184q0 53 23.5 79t60.5 26h36v92h-38q-35 0 -58.5 26.5t-23.5 78.5v184q0 50 -8 88t-29 64t-57.5 39
t-93.5 13h-52v-96h48q40 0 55 -18t15 -79v-183q0 -38 6.5 -63t19 -43t32 -31.5t45.5 -26.5q-52 -22 -77.5 -54.5t-25.5 -106.5v-184q0 -60 -14.5 -78.5t-53.5 -18.5z" />
    <glyph glyph-name="asciitilde" unicode="~" horiz-adv-x="750" 
d="M105 255v42l-18 -15v122q33 24 74 38.5t79 14.5q28 0 67.5 -10.5t78.5 -23t72 -23t48 -10.5q48 0 83 17t75 50v-42l18 15v-127q-35 -23 -74.5 -35.5t-79.5 -12.5q-28 0 -64.5 10.5t-73.5 23.5t-72 23.5t-60 10.5q-38 0 -78 -18t-75 -50zM99 398v-88q20 19 60.5 35.5
t80.5 16.5q26 0 61.5 -10.5t73 -23.5t73 -23.5t62.5 -10.5q38 0 75 12t67 31v94q-26 -21 -61 -37t-85 -16q-16 0 -49.5 10.5t-72.5 23t-78 23t-66 10.5q-37 0 -74.5 -13.5t-66.5 -33.5z" />
    <glyph glyph-name="currency" unicode="&#xa4;" horiz-adv-x="603" 
d="M574 216l-46 -46l-101 102q-28 -19 -60 -29.5t-66 -10.5q-35 0 -66 10.5t-59 29.5l-102 -102l-46 46l101 101q-42 59 -42 125q0 68 42 127l-101 100l46 46l102 -103q58 41 125 41q34 0 65.5 -10.5t59.5 -30.5l102 103l46 -46l-101 -100q42 -59 42 -127t-42 -123zM449 444
q0 63 -42.5 104t-103.5 41q-31 0 -58 -11t-47 -30t-31.5 -45.5t-11.5 -58.5t11.5 -59.5t31.5 -47t47 -30.5t58 -11q30 0 56.5 11t46.5 31t31.5 47t11.5 59z" />
    <glyph glyph-name="brokenbar" unicode="&#xa6;" horiz-adv-x="500" 
d="M332 -196h-128v27h-18v400h128v-27h18v-400zM186 710h128v-27h18v-400h-128v27h-18v400zM198 -157h104v376h-104v-376zM302 698h-104v-376h104v376zM1 -326v-1h-1v1h1z" />
    <glyph glyph-name="section" unicode="&#xa7;" 
d="M315 169q35 0 58.5 26t23.5 70q0 27 -8 48q-22 19 -56 19q-35 0 -59 -25t-24 -69q0 -28 8 -50q20 -19 57 -19zM110 -33v44h147q0 -7 0.5 -14t0.5 -13h17q1 -26 2 -44t5 -30q13 -7 35 -7q31 0 44.5 14.5t13.5 51.5q0 7 -0.5 12t-1.5 10q-11 7 -28 14.5t-43 17.5
q-60 23 -89 36.5t-39 22.5q-30 28 -49 60q-23 28 -33 59.5t-10 63.5q0 46 23.5 87.5t63.5 70.5q-16 17 -26 35q-37 45 -37 104q0 38 16 71t44.5 57.5t67.5 38.5t86 14q65 0 112.5 -26.5t70.5 -72.5q38 -49 38 -115v-41h-149q0 8 -0.5 14.5t-1.5 12.5h-16q-1 28 -2.5 47.5
t-5.5 32.5q-11 7 -32 7q-30 0 -43.5 -14.5t-13.5 -48.5q0 -17 3 -29q10 -8 27 -15t44 -17q135 -52 175 -124q39 -46 39 -113q0 -50 -22.5 -93t-62.5 -71q15 -17 25 -35q38 -48 38 -107q0 -36 -16 -69.5t-44 -58.5t-65.5 -40t-81.5 -15q-64 0 -114 29t-74 75q-38 49 -38 111z
M315 157q-44 0 -69.5 27t-25.5 81q0 48 28 77t67 29q43 0 68.5 -27t25.5 -79q0 -48 -28 -78t-66 -30zM122 -1v-32q0 -38 14.5 -70t40 -55.5t61.5 -37t80 -13.5q42 0 77.5 14t61.5 37t41 54.5t15 65.5q0 38 -18.5 72.5t-59.5 66.5q52 33 76 75t24 92q0 69 -43.5 115
t-144.5 84q-29 10 -48 18t-30.5 18.5t-16.5 25t-5 37.5q0 75 69 75q37 0 52.5 -23t17.5 -91h125v29q0 80 -51 127.5t-140 47.5q-45 0 -82 -13t-64 -35.5t-41.5 -53.5t-14.5 -67q0 -38 18.5 -71t59.5 -64q-102 -67 -102 -162q0 -41 16.5 -77.5t53.5 -69.5q10 -8 37.5 -21
t86.5 -36q28 -11 47.5 -19t30.5 -17.5t16 -22.5t5 -33q0 -41 -17.5 -59.5t-52.5 -18.5q-40 0 -55.5 21.5t-16.5 86.5h-123z" />
    <glyph glyph-name="copyright" unicode="&#xa9;" horiz-adv-x="783" 
d="M748 355q0 -149 -103 -250q-53 -52 -119 -79t-136 -27q-143 0 -251 106q-104 106 -104 250q0 148 105 255q102 105 250 105q74 0 138.5 -27.5t116.5 -79.5q103 -103 103 -253zM706 356q0 64 -24 121t-68 101q-92 92 -223 92q-64 0 -120.5 -23t-100.5 -67
q-45 -46 -69 -104t-24 -120t24 -119.5t68 -101.5q92 -92 222 -92q128 0 224 93q91 89 91 220zM562 277q-5 -62 -53 -101.5t-120 -39.5q-85 0 -135.5 59.5t-50.5 160.5q0 100 52 160t139 60q67 0 112.5 -36t50.5 -94h-65q-8 38 -34 59t-67 21q-56 0 -87.5 -44.5t-31.5 -125.5
q0 -79 32.5 -123.5t88.5 -44.5q41 0 69 24t36 65h64z" />
    <glyph glyph-name="guillemotleft" unicode="&#xab;" horiz-adv-x="500" 
d="M263 423l-91 -180l91 -180h-113l-17 27h-1l-115 180l115 180h113l-14 -27h32zM491 423l-91 -180l91 -180h-113l-17 27h-1l-98 153l-18 27l116 180h113l-14 -27h32zM141 270l84 168h-86l-108 -168l108 -168h86zM369 270l84 168h-86l-109 -168l109 -168h86z" />
    <glyph glyph-name="logicalnot" unicode="&#xac;" horiz-adv-x="724" 
d="M626 214h-75v164h-475v72h550v-236z" />
    <glyph glyph-name="registered" unicode="&#xae;" horiz-adv-x="782" 
d="M748 356q0 -150 -104 -252q-52 -50 -118 -77.5t-136 -27.5q-147 0 -252 107q-50 51 -77 115t-27 135q0 128 88 231q50 60 118.5 93.5t149.5 33.5q74 0 139 -27.5t116 -79.5q103 -103 103 -251zM705 354q0 132 -91 223q-93 93 -224 93q-130 0 -219 -89q-94 -97 -94 -225
q0 -62 23.5 -119t67.5 -101q45 -46 102.5 -70t119.5 -24q127 0 223 94q92 89 92 218zM400 566q87 0 128.5 -27.5t41.5 -85.5q0 -43 -26 -72t-69 -36l91 -187h-78l-85 177h-85v-177h-70v408h152zM387 520h-69v-140h71q62 0 86 16.5t24 54.5q0 69 -112 69z" />
    <glyph glyph-name="degree" unicode="&#xb0;" horiz-adv-x="337" 
d="M187 641q-37 0 -62.5 -26t-25.5 -62q0 -15 7 -34q12 -12 28 -19.5t35 -7.5q36 0 61.5 26t25.5 62q0 18 -8 36q-12 11 -27.5 18t-33.5 7zM169 732q44 0 80 -23.5t55 -60.5q34 -42 34 -95q0 -31 -12 -59t-33 -48.5t-48.5 -32.5t-58.5 -12q-44 0 -78.5 22.5t-53.5 57.5
q-16 20 -26 45.5t-10 53.5q0 31 12 58.5t32 48.5t48 33t59 12zM169 680q40 0 69.5 -30t29.5 -70t-29.5 -70t-69.5 -30q-41 0 -70.5 30t-29.5 70t29.5 70t70.5 30zM169 720q-30 0 -55 -11t-44 -30t-29.5 -44.5t-10.5 -54.5q0 -59 39.5 -99.5t98.5 -40.5q29 0 54.5 11
t44.5 29.5t30 44t11 55.5q0 58 -40 99t-99 41z" />
    <glyph glyph-name="plusminus" unicode="&#xb1;" horiz-adv-x="853" 
d="M726 359h-270v-172h-60v172h-269v59h269v172h60v-172h270v-59zM726 20h-599v59h599v-59z" />
    <glyph glyph-name="mu" unicode="&#xb5;" horiz-adv-x="539" 
d="M512 508l-71 -355q-3 -6 -6 -21.5t-4 -27t-1 -13.5q0 -9 4 -22t15 -13q2 0 4.5 -3t5.5 -3l-5 -33l-2 -12q-1 0 -2.5 -5.5l-1.5 -5.5h-17q-1 0 -3.5 -0.5l-2.5 -0.5h-16h-13q-1 0 -0.5 7t-0.5 7v3q-18 -24 -43 -24q-4 0 -7 0.5t-6 0.5q-19 3 -29 16q-6 8 -8 23q-1 3 -1 13
v2q-35 -52 -112 -46q-33 1 -58 18t-39 46l-50 -262h-85l143 711h83l-50 -256q-5 -26 -8 -48t-3 -38q0 -110 102 -110q110 0 150 192l54 260h84z" />
    <glyph glyph-name="paragraph" unicode="&#xb6;" horiz-adv-x="504" 
d="M474 701h-62v-701h-48v701h-91v-701h-47v392q-87 3 -138 50t-51 123q0 79 54.5 127t142.5 48h240v-39z" />
    <glyph glyph-name="guillemotright" unicode="&#xbb;" horiz-adv-x="500" 
d="M255 450h113l17 -27h1l115 -180l-115 -180h-113l14 27h-32l91 180zM27 450h113l17 -27h1l116 -180l-116 -180h-113l14 27h-32l91 180zM361 438h-86l84 -168l-84 -168h86l108 168zM133 438h-86l84 -168l-84 -168h86l109 168z" />
    <glyph glyph-name="multiply" unicode="&#xd7;" horiz-adv-x="853" 
d="M206 604l221 -219l221 219l80 -77l-5 -5l23 -22l-217 -217l199 -199l-5 -4l23 -23l-80 -77l-221 218l-221 -218l-80 77l5 5l-23 22l217 217l-199 199l5 4l-23 23zM427 368l-221 219l-63 -60l221 -222l-221 -221l63 -60l221 218l221 -218l63 60l-221 221l221 222l-63 60z
" />
    <glyph glyph-name="divide" unicode="&#xf7;" horiz-adv-x="853" 
d="M127 278v100h600v-27h18v-100h-600v27h-18zM352 125q0 31 22 53t53 22q24 0 43 -13.5t27 -34.5q23 -23 23 -54t-22 -53t-53 -22q-24 0 -43 13.5t-27 34.5q-23 23 -23 54zM352 531q0 31 22 53t53 22q24 0 43 -13.5t27 -34.5q23 -23 23 -54t-22 -53t-53 -22q-24 0 -43 13.5
t-27 34.5q-23 23 -23 54zM139 366v-76h576v76h-576zM364 125q0 -27 18 -45t45 -18q28 0 45.5 18t17.5 45t-17.5 45t-45.5 18q-27 0 -45 -18t-18 -45zM364 531q0 -27 18 -45t45 -18q28 0 45.5 18t17.5 45t-17.5 45t-45.5 18q-27 0 -45 -18t-18 -45z" />
    <glyph glyph-name="afii10023" unicode="&#x401;" horiz-adv-x="567" 
d="M469 816q0 -28 -19.5 -48t-48.5 -20q-22 0 -39 13t-24 32q-22 20 -22 50q0 28 19.5 47.5t47.5 19.5q23 0 40 -13t24 -32q22 -20 22 -49zM294 816q0 -28 -20 -48t-48 -20q-21 0 -38.5 13t-24.5 33q-22 20 -22 49q0 28 20 47.5t47 19.5q22 0 39.5 -13t24.5 -32
q22 -20 22 -49zM525 -27h-423v27h-18v732h423v-27h18v-126h-279v-129h236v-27h18v-120h-254v-177h261v-27h18v-126zM439 843q0 24 -15.5 39.5t-40.5 15.5q-24 0 -39.5 -15.5t-15.5 -39.5t15.5 -40t39.5 -16q25 0 40.5 16t15.5 40zM264 843q0 24 -15.5 39.5t-40.5 15.5
q-23 0 -39 -15.5t-16 -39.5t16 -40t39 -16q25 0 40.5 16t15.5 40zM96 12h399v102h-279v228h254v96h-254v180h279v102h-399v-708z" />
    <glyph glyph-name="afii10017" unicode="&#x410;" horiz-adv-x="684" 
d="M558 0l-59 135h-283l-72 -162h-150l13 27h-31l366 768l15 -32l3 5l366 -768h-150l-12 27h-6zM435 279l-78 176l-77 -176h155zM495 174l71 -162h123l-347 728l-347 -728h123l72 162h305zM232 267l110 252l111 -252h-221z" />
    <glyph glyph-name="afii10018" unicode="&#x411;" horiz-adv-x="616" 
d="M84 0v732h445v-27h18v-126h-301v-113h55q89 0 150.5 -31t91.5 -86q46 -58 46 -142q0 -47 -17 -89.5t-50.5 -74.5t-84.5 -51t-118 -19h-217v27h-18zM246 318v-197h51q71 0 99 27.5t28 85.5q0 32 -9 54q-30 30 -100 30h-69zM96 720v-708h205q65 0 113.5 17.5t80.5 48t48 71
t16 85.5q0 102 -66.5 161t-191.5 59h-85v164h301v102h-421zM216 109v248h81q76 0 107.5 -33.5t31.5 -89.5q0 -62 -32 -93.5t-107 -31.5h-81z" />
    <glyph glyph-name="afii10019" unicode="&#x412;" horiz-adv-x="638" 
d="M84 0v732h219q22 0 51 -2.5t59 -11.5t57 -27.5t45 -50.5q19 -21 30 -52.5t11 -74.5q0 -35 -14.5 -69t-43.5 -57q45 -25 68 -69q42 -51 42 -121q0 -43 -14 -83.5t-44.5 -72t-80.5 -50t-122 -18.5h-245v27h-18zM244 582v-132h72q35 0 55 20t20 64q0 19 -4 31q-22 17 -73 17
h-70zM244 306v-183h75q71 0 96 27.5t25 73.5q0 30 -9 52q-28 30 -82 30h-105zM96 720v-708h233q69 0 117 17.5t77 46.5t42 67.5t13 80.5q0 56 -33 103t-112 73q53 30 73 66t20 74q0 64 -24 100t-59 54t-73 22t-67 4h-207zM214 438v183h82q33 0 54 -7.5t32.5 -19.5t16 -28
t4.5 -32q0 -48 -24 -72t-63 -24h-102zM214 111v234h117q60 0 90.5 -34.5t30.5 -86.5q0 -50 -29 -81.5t-104 -31.5h-105z" />
    <glyph glyph-name="afii10020" unicode="&#x413;" horiz-adv-x="487" 
d="M87 0v732h378v-27h18v-126h-234v-606h-144v27h-18zM99 720v-708h120v606h234v102h-354z" />
    <glyph glyph-name="afii10021" unicode="&#x414;" horiz-adv-x="712" 
d="M694 124v-27h18v-268h-142v27h-18v117h-392v-144h-142v27h-18v268q30 0 50 5.5t33 21t18.5 44t5.5 73.5v464h512v-27h18v-581h57zM249 124h225v458h-208v-355q0 -28 -5 -54.5t-12 -48.5zM130 12h434v-144h118v244h-75v608h-488v-452q0 -48 -6.5 -78t-20 -47.5t-33.5 -24
t-47 -6.5v-244h118v144zM236 621h250v-509h-285q35 74 35 142v367z" />
    <glyph glyph-name="afii10022" unicode="&#x415;" horiz-adv-x="567" 
d="M84 0v732h423v-27h18v-126h-279v-129h236v-27h18v-120h-254v-177h261v-27h18v-126h-423v27h-18zM96 720v-708h399v102h-279v228h254v96h-254v180h279v102h-399z" />
    <glyph glyph-name="afii10024" unicode="&#x416;" horiz-adv-x="945" 
d="M176 -27h-170l19 27h-37l283 392l-258 313h4l-22 27h167l239 -309v309h143v-27h18v-259l221 286h167l-22 -27h40l-277 -336l266 -369h-1l19 -27h-170l-18 27l-225 339v-366h-143v27h-18v312zM413 12h119v376l6 8l-6 10v314h-119v-314l-6 -10l6 -8v-376zM538 396l255 -384
h141l-277 383l268 325h-136zM11 12h141l255 384l-251 324h-136l268 -325z" />
    <glyph glyph-name="afii10025" unicode="&#x417;" horiz-adv-x="629" 
d="M228 520h-142q0 7 0.5 13.5t1.5 13.5h-20q0 50 19 88.5t52 65t77 40t93 13.5q87 0 140 -29.5t79 -75.5q22 -27 32.5 -60t10.5 -67q0 -46 -18 -82.5t-50 -56.5q42 -28 59 -64q20 -25 28.5 -57t8.5 -71q0 -109 -73 -174.5t-199 -65.5q-77 0 -139 30.5t-95 89.5
q-24 31 -37 71t-13 89h143v-14t1 -13h17q0 -50 12 -79q16 -16 39.5 -21t53.5 -5q58 0 90.5 30.5t32.5 94.5q0 30 -10 55q-31 29 -95 29h-76v27h-18v120h65q57 0 82 20.5t25 71.5q0 19 -7 38q-25 22 -71 22q-43 0 -71 -20t-28 -67zM80 559h118q0 43 32.5 65t78.5 22
q48 0 78 -25.5t30 -73.5q0 -55 -29.5 -79.5t-89.5 -24.5h-53v-96h64q135 0 135 -123q0 -69 -37 -103t-98 -34q-29 0 -54 5t-43 19.5t-28 40t-10 67.5h-119q0 -55 19 -97.5t53 -72t80.5 -44.5t101.5 -15q122 0 191 61.5t69 166.5q0 63 -25.5 106t-103.5 78q55 25 78 61.5
t23 85.5q0 38 -13 73t-40.5 61.5t-71.5 42.5t-107 16q-48 0 -90 -12.5t-72.5 -35.5t-48.5 -57.5t-18 -77.5z" />
    <glyph glyph-name="afii10026" unicode="&#x418;" horiz-adv-x="772" 
d="M84 732h144v-27h18v-407l442 470v-46l18 19v-768h-144v27h-18v408l-442 -471v46l-18 -19v768zM216 720h-120v-726l460 490v-472h120v726l-460 -489v471z" />
    <glyph glyph-name="afii10027" unicode="&#x419;" horiz-adv-x="772" 
d="M84 732h144v-27h18v-407l442 470v-46l18 19v-768h-144v27h-18v408l-442 -471v46l-18 -19v768zM357 896q0 -16 3 -27q11 -7 31 -7q23 0 37.5 12.5t14.5 48.5h105v-13.5t-2 -13.5h20q0 -33 -13 -60.5t-35 -46.5t-50.5 -30t-58.5 -11q-44 0 -83.5 22.5t-58.5 60.5
q-33 38 -33 92h105q0 -17 3 -27h15zM216 720h-120v-726l460 490v-472h120v726l-460 -489v471zM327 911h-81q0 -26 12 -49t32 -39.5t46 -26t55 -9.5t55 9.5t46 26t32 39.5t12 49h-81q0 -32 -19.5 -46.5t-44.5 -14.5t-44.5 14.5t-19.5 46.5z" />
    <glyph glyph-name="afii10028" unicode="&#x41a;" horiz-adv-x="667" 
d="M513 -27l-268 366v-366h-143v27h-18v732h143v-27h18v-258l244 285h167l-24 -27h42l-301 -335l301 -370h-4l22 -27h-179zM219 398l282 -386h148l-312 383l292 325h-134zM215 12v382l4 4l-4 5v317h-119v-708h119z" />
    <glyph glyph-name="afii10029" unicode="&#x41b;" horiz-adv-x="693" 
d="M624 -27h-144v27h-18v584h-192v-370q0 -135 -40 -195.5t-136 -60.5q-12 0 -34 3.5t-42 11.5v21l-18 6v127q33 -19 62 -19q10 0 19.5 3.5t16.5 17t11 40.5t4 75v488h493v-27h18v-732zM474 12h120v708h-469v-476q0 -51 -5.5 -80.5t-14.5 -44.5t-20.5 -19t-22.5 -4
q-18 0 -31.5 3.5t-18.5 6.5v-98q14 -5 33.5 -8t30.5 -3q91 0 127.5 55.5t36.5 188.5v382h234v-611z" />
    <glyph glyph-name="afii10030" unicode="&#x41c;" horiz-adv-x="866" 
d="M171 741l264 -503l278 530l8 -46l10 19l135 -768h-144l-4 27h-14l-50 322l-203 -385l-16 31l-2 -4l-197 373l-56 -364h-144l5 27h-23l135 768l17 -32zM433 208l-274 523l-127 -719h120l61 395l220 -417l220 417l61 -395h120l-127 719z" />
    <glyph glyph-name="afii10031" unicode="&#x41d;" horiz-adv-x="768" 
d="M84 0v732h144v-27h18v-252h294v279h144v-27h18v-732h-144v27h-18v303h-294v-330h-144v27h-18zM96 720v-708h120v330h336v-330h120v708h-120v-279h-336v279h-120z" />
    <glyph glyph-name="afii10032" unicode="&#x41e;" horiz-adv-x="868" 
d="M452 -49q-107 0 -195 49.5t-138 132.5q-35 48 -54.5 107t-19.5 126q0 84 30 155t82.5 122.5t123.5 81t153 29.5q107 0 195 -49.5t138 -132.5q35 -48 54.5 -107t19.5 -126q0 -84 -30 -155t-82.5 -122.5t-123.5 -81t-153 -29.5zM434 110q53 0 96.5 18.5t74.5 52.5t48 81
t17 104q0 82 -34 144q-32 40 -79 62.5t-105 22.5q-53 0 -96.5 -18t-74.5 -51.5t-48 -81t-17 -105.5q0 -81 34 -143q32 -40 79 -63t105 -23zM434 -10q80 0 149 28t119.5 78t79.5 119t29 151t-29 151t-79.5 119t-119.5 78t-149 28t-149 -28t-119.5 -78t-79.5 -119t-29 -151
t29 -151t79.5 -119t119.5 -78t149 -28zM434 98q-55 0 -100.5 20t-78.5 55.5t-51 84.5t-18 108q0 60 18 109.5t51 84.5t78.5 54.5t100.5 19.5t100.5 -19.5t78.5 -54.5t51 -84.5t18 -109.5q0 -59 -18 -108t-51 -84.5t-78.5 -55.5t-100.5 -20z" />
    <glyph glyph-name="afii10033" unicode="&#x41f;" horiz-adv-x="756" 
d="M84 0v732h588v-27h18v-732h-144v27h-18v579h-282v-606h-144v27h-18zM96 720v-708h120v606h324v-606h120v708h-564z" />
    <glyph glyph-name="afii10034" unicode="&#x420;" horiz-adv-x="606" 
d="M87 0v732h228q87 0 143.5 -28.5t84.5 -78.5q44 -55 44 -139q0 -44 -14 -84t-44 -70t-77.5 -47.5t-114.5 -17.5h-89v-294h-143v27h-18zM248 585v-170h57q72 0 95 23.5t23 74.5q0 27 -7 47q-13 12 -34.5 18.5t-55.5 6.5h-78zM99 720v-708h119v294h101q65 0 110 16.5
t73.5 44.5t41.5 65.5t13 80.5q0 96 -59 151.5t-183 55.5h-216zM218 403v221h90q75 0 101 -32t26 -79q0 -54 -26.5 -82t-103.5 -28h-87z" />
    <glyph glyph-name="afii10035" unicode="&#x421;" horiz-adv-x="684" 
d="M657 153v-157q-90 -45 -208 -45q-112 0 -196 49t-133 129q-36 49 -55.5 109t-19.5 128q0 76 27.5 146.5t78.5 124t122.5 85.5t159.5 32q53 0 105 -9.5t101 -34.5v-19q5 -2 9 -4t9 -4v-157q-49 34 -99 51.5t-107 17.5q-48 0 -91 -19.5t-76 -54t-52 -81t-19 -101.5
q0 -41 9.5 -76.5t25.5 -65.5q32 -41 79 -64t105 -23t108 19t99 51v-38q5 3 9 5.5t9 5.5zM627 30v128q-36 -24 -85.5 -42t-109.5 -18q-55 0 -100.5 20t-78.5 56t-51.5 85t-18.5 107q0 57 20.5 106t55 85t79.5 56.5t95 20.5q59 0 108.5 -16.5t85.5 -41.5v127q-43 21 -92 30
t-102 9q-86 0 -155.5 -30.5t-118.5 -82.5t-75.5 -120t-26.5 -143q0 -79 26.5 -147.5t75 -119.5t118 -80t154.5 -29q58 0 108.5 10.5t87.5 29.5z" />
    <glyph glyph-name="afii10036" unicode="&#x422;" horiz-adv-x="538" 
d="M197 0v579h-173v27h-18v126h526v-27h18v-126h-191v-606h-144v27h-18zM209 618v-606h120v606h191v102h-502v-102h191z" />
    <glyph glyph-name="afii10037" unicode="&#x423;" horiz-adv-x="644" 
d="M0 732h153l14 -27h4l175 -338l165 365h145l-12 -27h30l-332 -732h-144l12 27h-30l95 210zM146 720h-126l268 -510l-89 -198h117l321 708h-118l-187 -414v55z" />
    <glyph glyph-name="afii10038" unicode="&#x424;" horiz-adv-x="874" 
d="M366 0v78h-2q-99 0 -165.5 36.5t-100.5 97.5q-54 72 -54 176q0 58 19 111.5t58.5 93.5t100.5 64t144 24v75h142v-27h18v-49q98 -4 163 -40.5t100 -94.5q30 -38 44.5 -85.5t14.5 -98.5q0 -61 -19 -112.5t-56.5 -89.5t-94 -59.5t-132.5 -21.5h-20v-105h-142v27h-18z
M686 388q0 26 -5 51t-15 47q-19 22 -48 35t-72 13h-20v-311q82 4 121 43.5t39 121.5zM206 361q0 -56 18 -92q43 -47 142 -47v312h-2q-45 0 -75.5 -14.5t-49 -38.5t-26 -55.5t-7.5 -64.5zM378 117v-105h118v105h32q74 0 128 20t90 56t54 86t18 109q0 57 -18 108t-57 89.5
t-100 61t-147 22.5v75h-118v-75q-86 0 -147 -22.5t-100 -61t-57 -89.5t-18 -108q0 -59 18 -109t54 -86t90 -56t128 -20h32zM698 388q0 -91 -49 -134.5t-153 -43.5v363h32q48 0 81 -16t52.5 -42t28 -59.5t8.5 -67.5zM176 388q0 34 8.5 67.5t28 59.5t52.5 42t81 16h32v-363
q-104 0 -153 43.5t-49 134.5z" />
    <glyph glyph-name="afii10039" unicode="&#x425;" horiz-adv-x="616" 
d="M460 0l-135 232l-151 -259h-159l16 27h-34l232 380l-215 352h159l16 -27h2l118 -205l134 232h159l-16 -27h34l-215 -352l232 -380h-159l-16 27h-2zM308 285l159 -273h131l-225 368l208 340h-131l-142 -246l-142 246h-131l208 -340l-225 -368h131z" />
    <glyph glyph-name="afii10040" unicode="&#x426;" horiz-adv-x="747" 
d="M516 124v608h144v-27h18v-581h57v-27h18v-268h-141v27h-18v117h-492v27h-18v732h144v-27h18v-581h270zM528 720v-608h-312v608h-120v-708h510v-144h117v244h-75v608h-120z" />
    <glyph glyph-name="afii10041" unicode="&#x427;" horiz-adv-x="639" 
d="M408 423v309h144v-27h18v-732h-144v27h-18v274q-26 -3 -54.5 -5t-55.5 -2q-157 0 -206 93q-45 55 -45 163v209h142v-27h18v-206q0 -44 10 -68q21 -18 63 -18q32 0 66.5 3t61.5 7zM420 720v-307q-35 -5 -71.5 -8.5t-68.5 -3.5q-52 0 -77.5 30t-25.5 95v194h-118v-197
q0 -113 49.5 -165t171.5 -52q32 0 66.5 2.5t73.5 8.5v-305h120v708h-120z" />
    <glyph glyph-name="afii10042" unicode="&#x428;" horiz-adv-x="994" 
d="M84 732h142v-27h18v-583h182v610h142v-27h18v-583h182v610h142v-27h18v-732h-826v27h-18v732zM214 720h-118v-708h802v708h-118v-610h-224v610h-118v-610h-224v610z" />
    <glyph glyph-name="afii10043" unicode="&#x429;" horiz-adv-x="997" 
d="M1003 -173h-141v27h-18v119h-742v27h-18v732h142v-27h18v-583h182v610h142v-27h18v-583h182v610h142v-27h18v-583h57v-27h18v-268zM856 -134h117v244h-75v610h-118v-610h-224v610h-118v-610h-224v610h-118v-708h754l6 -11v-135z" />
    <glyph glyph-name="afii10044" unicode="&#x42a;" horiz-adv-x="690" 
d="M162 0v579h-132v27h-18v126h294v-27h18v-242h49q103 0 165.5 -29.5t90.5 -83.5q43 -55 43 -143q0 -47 -16 -89.5t-49.5 -74.5t-87 -51t-128.5 -19h-211v27h-18zM324 315v-194h45q78 0 106.5 27.5t28.5 85.5q0 31 -9 52q-32 29 -108 29h-63zM174 618v-606h199
q73 0 124 17.5t83 48t47 71t15 85.5q0 102 -61.5 159.5t-207.5 57.5h-79v269h-270v-102h150zM294 109v245h75q80 0 113.5 -31t33.5 -89q0 -61 -32 -93t-115 -32h-75z" />
    <glyph glyph-name="afii10045" unicode="&#x42b;" horiz-adv-x="867" 
d="M84 0v732h144v-27h18v-242h41q103 0 163 -27t89 -76q25 -29 36 -67.5t11 -85.5t-14.5 -89.5t-47.5 -74.5t-86.5 -51t-132.5 -19h-203v27h-18zM246 315v-194h37q78 0 106.5 27.5t28.5 85.5q0 31 -9 52q-32 29 -108 29h-55zM639 0v732h144v-27h18v-732h-144v27h-18zM96 720
v-708h191q76 0 127.5 17.5t83 48t45 71t13.5 85.5q0 51 -13.5 91.5t-44.5 68.5t-82.5 42.5t-128.5 14.5h-71v269h-120zM216 109v245h67q80 0 113.5 -31t33.5 -89q0 -61 -32 -93t-115 -32h-67zM651 720v-708h120v708h-120z" />
    <glyph glyph-name="afii10046" unicode="&#x42c;" horiz-adv-x="613" 
d="M87 0v732h144v-27h18v-242h47q103 0 163.5 -27t88.5 -76q26 -29 36.5 -67.5t10.5 -85.5t-14.5 -89.5t-48 -74.5t-87 -51t-131.5 -19h-209v27h-18zM249 315v-194h43q78 0 106.5 27.5t28.5 85.5q0 31 -9 52q-32 29 -108 29h-61zM99 720v-708h197q76 0 127.5 17.5t83 48
t45 71t13.5 85.5q0 51 -13.5 91.5t-44.5 68.5t-83 42.5t-128 14.5h-77v269h-120zM219 109v245h73q80 0 113.5 -31t33.5 -89q0 -61 -32.5 -93t-114.5 -32h-73z" />
    <glyph glyph-name="afii10047" unicode="&#x42d;" horiz-adv-x="658" 
d="M39 180q48 -32 95.5 -51t103.5 -19q180 0 218 184h-284v27h-18v117h302q-8 54 -28 89q-29 36 -73.5 52t-99.5 16t-102.5 -17.5t-95.5 -51.5v39l-18 -12v157q47 25 97 34.5t101 9.5q113 0 192.5 -41.5t125.5 -116.5q76 -100 76 -257q0 -87 -25.5 -158.5t-73.5 -122.5
t-117.5 -79t-157.5 -28q-113 0 -200 45v19q-5 2 -9 4t-9 4v157zM51 157v-127q36 -19 84.5 -29.5t103.5 -10.5q86 0 153.5 26.5t114 76t70.5 118.5t24 155t-23.5 155.5t-69.5 118.5t-114 75.5t-157 26.5q-50 0 -97.5 -9t-88.5 -30v-127q35 25 82.5 41.5t103.5 16.5
q91 0 154 -48t79 -160h-304v-93h308q-33 -235 -236 -235q-58 0 -105 18t-82 41z" />
    <glyph glyph-name="afii10048" unicode="&#x42e;" horiz-adv-x="1111" 
d="M84 732h144v-27h18v-263h67q13 69 48 126.5t86 99t114.5 64.5t132.5 23q101 0 184 -48.5t132 -130.5q34 -48 54 -108t20 -128q0 -84 -29 -155t-79 -122.5t-118 -81t-146 -29.5q-104 0 -191.5 50t-139.5 135q-25 34 -42.5 73.5t-25.5 83.5h-67v-321h-144v27h-18v732z
M694 111q50 0 92 18.5t72 52.5t46.5 81t16.5 104q0 83 -34 145q-30 40 -74.5 62t-100.5 22q-50 0 -94 -18t-77 -51.5t-52 -81t-19 -105.5q0 -78 34 -137q33 -43 82.5 -67.5t107.5 -24.5zM216 720h-120v-708h120v321h104q9 -77 41.5 -140t83 -108t114.5 -69.5t135 -24.5
q76 0 142 28t114.5 78t76 119t27.5 151t-27.5 151t-76 119t-114.5 78t-142 28q-68 0 -129.5 -22.5t-110.5 -63.5t-83.5 -98.5t-47.5 -128.5h-107v290zM694 99q-52 0 -98.5 20t-81 55.5t-54.5 84.5t-20 108q0 60 20 109.5t54.5 84.5t81 54.5t98.5 19.5t96 -19.5t75.5 -54.5
t49.5 -84.5t18 -109.5q0 -59 -18 -108t-49.5 -84.5t-75.5 -55.5t-96 -20z" />
    <glyph glyph-name="afii10049" unicode="&#x42f;" 
d="M16 0l186 287q-38 13 -68.5 37.5t-48.5 58.5q-19 25 -30.5 56t-11.5 69q0 105 71.5 164.5t203.5 59.5h228v-27h18v-732h-143v27h-18v269h-31l-176 -296h-162l18 27h-36zM403 415v170h-66q-75 0 -102 -26.5t-27 -72.5q0 -29 7 -47q27 -24 97 -24h91zM233 313l-195 -301
h133l176 296h68v-296h119v708h-216q-129 0 -196 -56t-67 -156q0 -79 47.5 -127.5t130.5 -67.5zM415 624v-221h-103q-78 0 -106 30t-28 80q0 49 31 80t110 31h96z" />
    <glyph glyph-name="afii10065" unicode="&#x430;" horiz-adv-x="675" 
d="M612 -27h-136v27h-18v23q-27 -38 -64 -54t-87 -16q-73 0 -124 30t-81 80q-30 38 -45 89t-15 109q0 59 19 110.5t52.5 89.5t78.5 59.5t97 21.5q61 0 102 -23t66 -66h1v69h136v-27h18v-522zM209 234q0 -52 18 -88q34 -40 92 -40q69 0 104 38t35 132q0 45 -18 78
q-16 18 -40 28t-55 10q-59 0 -97.5 -42t-38.5 -116zM470 12h112v498h-112v-69h-20q-27 46 -64.5 67.5t-96.5 21.5q-50 0 -93 -20.5t-74.5 -56.5t-49.5 -85.5t-18 -106.5t14 -106t43.5 -85.5t73.5 -57t104 -20.5q29 0 52.5 5.5t44.5 20.5t41.5 41.5t42.5 68.5v-116zM179 261
q0 77 42.5 123.5t105.5 46.5q70 0 106.5 -46t36.5 -109q0 -98 -39 -140t-112 -42q-61 0 -100.5 46t-39.5 121z" />
    <glyph glyph-name="afii10066" unicode="&#x431;" horiz-adv-x="654" 
d="M346 -47q-86 0 -141 33.5t-87 88.5q-36 48 -51.5 112.5t-15.5 134.5q0 110 13.5 193t45.5 138t84 82.5t129 27.5q47 0 75 3.5t43.5 11t20.5 19.5t5 28h129q0 -7 -0.5 -13.5t-0.5 -13.5h19q0 -49 -10 -83.5t-36 -56.5t-71 -32t-116 -10q-143 0 -162 -142q28 25 62 36.5
t69 11.5q74 0 132 -27t91 -82q56 -67 56 -185q0 -63 -22.5 -114t-61 -86.5t-90 -55t-109.5 -19.5zM327 106q71 0 105.5 42t34.5 104q0 50 -16 83q-34 37 -103 37q-59 0 -95.5 -40.5t-36.5 -106.5q0 -47 18 -82q16 -17 39 -27t54 -10zM328 -8q56 0 105.5 18.5t86 52.5
t58 82.5t21.5 109.5q0 133 -68.5 194t-180.5 61q-40 0 -80 -19t-84 -73q0 124 44 180.5t133 56.5q69 0 112 8.5t67.5 27.5t33 49t8.5 73h-105q0 -13 -6 -24.5t-23.5 -20t-48 -13t-78.5 -4.5q-74 0 -124 -26t-80 -79.5t-43 -134t-13 -189.5q0 -66 13 -125.5t43.5 -105
t81.5 -72.5t127 -27zM327 94q-35 0 -61.5 12.5t-44 34t-26.5 50.5t-9 61q0 70 40.5 114.5t103.5 44.5q80 0 114.5 -45t34.5 -114q0 -32 -9.5 -61t-29 -50.5t-48 -34t-65.5 -12.5z" />
    <glyph glyph-name="afii10067" unicode="&#x432;" horiz-adv-x="550" 
d="M81 0v522h211q80 0 118 -24t53 -55q19 -23 25.5 -48t6.5 -44q0 -25 -13.5 -50.5t-35.5 -42.5q16 -10 28 -23.5t19 -28.5q17 -20 24.5 -42.5t7.5 -44.5q0 -69 -44 -107.5t-157 -38.5h-225v27h-18zM233 389v-79h48q36 0 48 15t12 38q0 4 -0.5 7t-1.5 7q-15 12 -39 12h-67z
M233 195v-89h63q39 0 54 17t15 42q0 7 -2 17q-18 13 -51 13h-79zM93 510v-498h213q55 0 91.5 8.5t58 25.5t30.5 42t9 58q0 34 -24.5 70t-92.5 53q48 25 67.5 53t19.5 56q0 18 -5 41t-23 43.5t-52.5 34t-92.5 13.5h-199zM203 298v130h79q36 0 53.5 -21t17.5 -44
q0 -25 -15.5 -45t-56.5 -20h-78zM203 94v140h91q45 0 64 -21.5t19 -47.5q0 -29 -18.5 -50t-62.5 -21h-93z" />
    <glyph glyph-name="afii10068" unicode="&#x433;" horiz-adv-x="432" 
d="M83 0v522h339v-27h18v-120h-202v-402h-137v27h-18zM95 510v-498h113v402h202v96h-315z" />
    <glyph glyph-name="afii10069" unicode="&#x434;" horiz-adv-x="631" 
d="M94 522h451v-27h18v-378h44v-27h18v-243h-130v27h-18v99h-323v-126h-130v27h-18v243q19 0 35 6.5t28 24.5t18.5 50.5t6.5 84.5v239zM408 117v261h-163v-136q0 -50 -7.5 -79t-17.5 -46h188zM533 510h-427v-227q0 -54 -7.5 -88.5t-20 -54.5t-28.5 -27.5t-32 -7.5v-219h106
v126h365v-126h106v219h-62v405zM420 417v-312h-281q20 14 34.5 27.5t23.5 31t13.5 42.5t4.5 63v148h205z" />
    <glyph glyph-name="afii10070" unicode="&#x435;" horiz-adv-x="642" 
d="M342 404q-32 0 -61.5 -16t-49.5 -45h223q-2 4 -4 7t-3 6q-40 48 -105 48zM621 228h-417q0 -53 19 -90q36 -41 101 -41q51 0 80 16.5t41 50.5h142q-3 -8 -5.5 -14t-5.5 -13h29q-36 -97 -99.5 -140.5t-163.5 -43.5q-86 0 -147 36t-95 94q-58 75 -58 178q0 57 21.5 108.5
t59 89.5t89 60.5t112.5 22.5q80 0 142.5 -32t97.5 -94q27 -35 42 -82.5t15 -105.5zM324 443q47 0 85 -27t64 -85h-293q25 58 64 85t80 27zM174 267h417q0 62 -19.5 111t-54.5 82.5t-84.5 51.5t-108.5 18t-108.5 -21t-85.5 -58t-56 -86t-20 -104t17.5 -104t52 -85.5t85 -58
t115.5 -21.5q98 0 156.5 39t89.5 121h-117q-11 -31 -43.5 -49t-85.5 -18q-74 0 -112 51t-38 131z" />
    <glyph glyph-name="afii10072" unicode="&#x436;" horiz-adv-x="807" 
d="M489 -27h-135v27h-18v175l-142 -202h-179l22 27h-40l224 274l-189 221h5l-23 27h176l146 -201v201h135v-27h18v-149l128 176h176l-23 -27h41l-208 -243l207 -252h-4l22 -27h-179l-160 228v-228zM348 12h111v254l178 -254h148l-218 265l200 233h-144l-164 -226v226h-111
v-226l-164 226h-144l200 -233l-218 -265h148l178 254v-254z" />
    <glyph glyph-name="afii10073" unicode="&#x437;" horiz-adv-x="549" 
d="M215 343h-138q0 7 0.5 13.5t1.5 13.5h-20q0 75 52.5 123.5t155.5 48.5q77 0 126 -26.5t70 -69.5q34 -41 34 -99q0 -25 -10 -50t-32 -41q23 -17 36 -43q31 -34 31 -89q0 -82 -66 -126.5t-171 -44.5q-82 0 -133.5 28t-74.5 71q-38 46 -38 106h141q0 -15 3 -27h15
q0 -15 3 -27q21 -16 66 -16q55 0 74 19t19 47q0 5 -2 15q-11 9 -29.5 14.5t-43.5 5.5h-43v27h-18v99h51q35 0 51 13.5t16 47.5q0 5 -0.5 9.5t-1.5 9.5q-19 14 -55 14q-37 0 -53.5 -14.5t-16.5 -51.5zM71 382h114q0 66 82 66q47 0 67 -21.5t20 -50.5q0 -38 -20.5 -55.5
t-58.5 -17.5h-39v-75h31q54 0 79.5 -23t25.5 -51q0 -32 -23 -55t-82 -23q-58 0 -78.5 22.5t-20.5 47.5h-117q0 -29 12.5 -57t39 -49.5t67.5 -34.5t97 -13q103 0 164 41t61 118q0 41 -21 69t-79 54q45 20 60 46t15 54q0 67 -49.5 111.5t-150.5 44.5q-99 0 -147.5 -43
t-48.5 -105z" />
    <glyph glyph-name="afii10074" unicode="&#x438;" horiz-adv-x="636" 
d="M81 522h137v-27h18v-224l319 281v-43l18 16v-552h-137v27h-18v237l-319 -294v44l-18 -17v552zM206 510h-113v-513l337 311v-296h113v513l-337 -297v282z" />
    <glyph glyph-name="afii10075" unicode="&#x439;" horiz-adv-x="636" 
d="M81 522h137v-27h18v-224l319 281v-43l18 16v-552h-137v27h-18v237l-319 -294v44l-18 -17v552zM300 684q0 -14 1 -20q7 -4 20 -4q21 0 30 11t9 40h105q0 -7 -0.5 -14t-1.5 -13h20q0 -39 -15 -66t-36.5 -43t-46.5 -23t-46 -7q-31 0 -70 17t-59 58q-14 16 -23 38.5t-9 52.5
h104q0 -17 3 -27h15zM206 510h-113v-513l337 311v-296h113v513l-337 -297v282zM270 699h-80q0 -32 13 -54t32.5 -35.5t42.5 -19.5t43 -6t43 6t43 19.5t33 35.5t13 54h-81q0 -23 -13 -37t-38 -14q-23 0 -37 14t-14 37z" />
    <glyph glyph-name="afii10076" unicode="&#x43a;" horiz-adv-x="563" 
d="M81 0v522h137v-27h18v-151l139 178h176l-24 -27h42l-219 -242l213 -253h-5l23 -27h-179l-166 228v-228h-137v27h-18zM93 510v-498h113v253l184 -253h147l-223 265l210 233h-143l-175 -224v224h-113z" />
    <glyph glyph-name="afii10077" unicode="&#x43b;" horiz-adv-x="609" 
d="M545 -27h-137v27h-18v380h-153v-227q0 -60 -9 -97.5t-26.5 -58.5t-42 -28.5t-54.5 -7.5q-17 0 -42.5 3.5t-44.5 13.5v20q-12 3 -18 7v121q17 -10 28.5 -12.5t21.5 -2.5q17 0 27 12.5t10 56.5v342h440v-27h18v-522zM402 12h113v498h-416v-330q0 -48 -14.5 -64.5
t-34.5 -16.5q-11 0 -22 1.5t-16 4.5v-93q12 -6 35.5 -9t39.5 -3q29 0 51.5 7t37.5 26t23 54.5t8 92.5v239h195v-407z" />
    <glyph glyph-name="afii10078" unicode="&#x43c;" horiz-adv-x="678" 
d="M532 0l-41 181l-134 -232l-17 29l-1 -2l-125 217l-50 -220h-139l7 27h-25l134 552l17 -30l1 3l181 -313l197 340l10 -41l8 14l134 -552h-139l-6 27h-12zM486 256l56 -244h114l-124 508l-193 -334l-193 334l-124 -508h114l56 244l147 -256z" />
    <glyph glyph-name="afii10079" unicode="&#x43d;" horiz-adv-x="643" 
d="M81 0v522h137v-27h18v-169h189v196h137v-27h18v-522h-137v27h-18v185h-189v-212h-137v27h-18zM93 510v-498h113v212h231v-212h113v498h-113v-196h-231v196h-113z" />
    <glyph glyph-name="afii10080" unicode="&#x43e;" horiz-adv-x="658" 
d="M208 234q0 -49 19 -85q38 -43 102 -43q59 0 99 39t40 116q0 49 -19 85q-38 43 -102 43q-59 0 -99 -39t-40 -116zM347 -47q-85 0 -149.5 38.5t-99.5 100.5q-26 35 -41 78.5t-15 90.5q0 57 21 108.5t59 89.5t90.5 60.5t116.5 22.5q85 0 149.5 -39t99.5 -100
q26 -35 41 -78.5t15 -90.5q0 -57 -21 -108.5t-59 -89.5t-90.5 -60.5t-116.5 -22.5zM178 261q0 41 12 72t32.5 52t48 32t58.5 11t58.5 -11t48 -32t32.5 -52t12 -72t-12 -72t-32.5 -52t-48 -32t-58.5 -11t-58.5 11t-48 32t-32.5 52t-12 72zM329 -8q62 0 112.5 21t86.5 58
t56 86t20 104t-20 104t-56 86t-86.5 58t-112.5 21t-112.5 -21t-86.5 -58t-56 -86t-20 -104t20 -104t56 -86t86.5 -58t112.5 -21z" />
    <glyph glyph-name="afii10081" unicode="&#x43f;" horiz-adv-x="636" 
d="M81 522h474v-27h18v-522h-137v27h-18v375h-182v-402h-137v27h-18v522zM543 510h-450v-498h113v402h224v-402h113v498z" />
    <glyph glyph-name="afii10082" unicode="&#x440;" horiz-adv-x="675" 
d="M81 522h135v-27h18v-19q26 35 63 50.5t87 15.5q74 0 125 -30t81 -79q31 -38 46 -89.5t15 -109.5q0 -67 -19.5 -119t-53 -88t-79 -55t-97.5 -19q-60 0 -101 22t-67 65q0 -16 1.5 -31.5t1.5 -35.5v-300h-138v27h-18v822zM485 261q0 55 -19 95q-33 39 -94 39q-29 0 -54.5 -9
t-44 -29.5t-29 -54t-10.5 -83.5q0 -43 17 -75q35 -38 95 -38t99.5 35t39.5 120zM204 510h-111v-798h114v288q0 10 -0.5 19t-1 21t-1 29t-0.5 42q41 -69 81.5 -94t98.5 -25q50 0 93.5 17.5t75.5 52t50 84.5t18 115q0 57 -14.5 106t-43.5 85t-74 57t-105 21q-28 0 -52 -5.5
t-45 -20t-41.5 -40t-41.5 -66.5v112zM497 261q0 -90 -44 -128.5t-107 -38.5q-68 0 -105 44.5t-37 107.5q0 52 12 88t32.5 58t47.5 32t58 10q65 0 104 -45t39 -128z" />
    <glyph glyph-name="afii10083" unicode="&#x441;" horiz-adv-x="528" 
d="M42 260q0 60 22.5 112t62.5 89.5t94.5 59t117.5 21.5q37 0 75 -8.5t75 -24.5v-20q5 -1 9 -3t9 -4v-144q-35 20 -73 34t-67 14q-79 0 -118.5 -40t-39.5 -113q0 -47 15 -79q39 -43 125 -43q29 0 67 12t73 39v-40q5 3 9 6.5t9 6.5v-147q-37 -16 -74.5 -24.5t-75.5 -8.5
q-86 0 -155.5 36.5t-106.5 102.5q-25 33 -39 75t-14 91zM54 260q0 -62 21.5 -111t60 -83.5t90.5 -53t113 -18.5q37 0 72 8t66 21v114q-22 -17 -60 -27.5t-68 -10.5q-170 0 -170 161q0 76 43.5 120.5t126.5 44.5q30 0 68 -13t60 -26v115q-31 13 -66 21t-72 8
q-61 0 -113.5 -20t-90.5 -56t-59.5 -86t-21.5 -108z" />
    <glyph glyph-name="afii10084" unicode="&#x442;" horiz-adv-x="427" 
d="M144 0v375h-126v27h-18v120h427v-27h18v-120h-145v-402h-138v27h-18zM156 414v-402h114v402h145v96h-403v-96h144z" />
    <glyph glyph-name="afii10085" unicode="&#x443;" horiz-adv-x="583" 
d="M100 -300l132 312l-232 510h150l12 -27h6l138 -309l142 336h144l-11 -27h29l-346 -822h-146l11 27h-29zM245 12l-127 -300h120l336 798h-118l-153 -361l-161 361h-123z" />
    <glyph glyph-name="afii10086" unicode="&#x444;" horiz-adv-x="912" 
d="M606 542q76 0 134 -30.5t91 -87.5q26 -34 40.5 -79.5t14.5 -101.5q0 -270 -262 -270q-16 0 -43 6.5t-39 13.5v-320h-136v27h-18v285q-15 -5 -33.5 -8.5t-30.5 -3.5q-165 0 -227 108q-53 65 -53 189q0 130 72 201t190 71q16 0 40 -3t42 -8v294h136v-27h18v-262
q16 3 34 4.5t30 1.5zM542 382v-261q21 -12 49 -12q63 0 97.5 36t34.5 125q0 28 -5 50.5t-13 39.5q-19 20 -43.5 29t-52.5 9q-21 0 -40 -4t-27 -12zM321 109q21 0 36.5 6t30.5 18v258q-23 7 -49 7t-50 -8t-42 -26t-29 -48t-11 -73q0 -62 18 -100q17 -18 41 -26t55 -8zM400 41
v-329h112v329q24 -14 51.5 -21.5t42.5 -7.5q127 0 188.5 63t61.5 195q0 126 -68 193t-182 67q-15 0 -40.5 -3.5t-53.5 -11.5v298h-112v-298q-28 8 -53.5 11.5t-40.5 3.5q-114 0 -182 -67t-68 -193q0 -132 61.5 -195t188.5 -63q15 0 42.5 7.5t51.5 21.5zM512 127v287
q13 12 35 17.5t44 5.5q27 0 53 -9t46.5 -28.5t32.5 -51.5t12 -78q0 -93 -38.5 -133t-105.5 -40q-23 0 -41 7.5t-38 22.5zM400 414v-287q-20 -15 -38 -22.5t-41 -7.5q-67 0 -105.5 40t-38.5 133q0 46 12 78t32.5 51.5t46.5 28.5t53 9q22 0 44 -5.5t35 -17.5z" />
    <glyph glyph-name="afii10087" unicode="&#x445;" horiz-adv-x="552" 
d="M413 -27l-119 168l-119 -168h-158l20 27h-38l198 267l-170 228h2l-20 27h156l111 -150l111 150h156l-20 -27h38l-188 -253l180 -242h-2l20 -27h-158zM276 189l125 -177h128l-190 256l180 242h-126l-117 -158l-117 158h-126l180 -242l-190 -256h128z" />
    <glyph glyph-name="afii10088" unicode="&#x446;" horiz-adv-x="633" 
d="M410 117v405h137v-27h18v-378h44v-27h18v-243h-130v27h-18v99h-377v27h-18v522h137v-27h18v-378h171zM422 510v-405h-213v405h-113v-498h395v-126h106v219h-62v405h-113z" />
    <glyph glyph-name="afii10089" unicode="&#x447;" horiz-adv-x="551" 
d="M330 0v152q-17 -3 -37.5 -5t-32.5 -2q-60 0 -103 21.5t-65 64.5q-20 24 -30.5 58t-10.5 79v154h135v-27h18v-156q0 -16 1.5 -27.5t3.5 -20.5q13 -8 42 -8q18 0 43 3.5t36 7.5v228h137v-27h18v-522h-137v27h-18zM342 198v-186h113v498h-113v-225q-18 -6 -45 -10t-46 -4
q-41 0 -59 19.5t-18 75.5v144h-111v-142q0 -97 46.5 -140.5t132.5 -43.5q15 0 44.5 4t55.5 10z" />
    <glyph glyph-name="afii10090" unicode="&#x448;" horiz-adv-x="867" 
d="M804 495v-522h-705v27h-18v522h135v-27h18v-378h132v405h135v-27h18v-378h132v405h135v-27h18zM774 12v498h-111v-405h-174v405h-111v-405h-174v405h-111v-498h681z" />
    <glyph glyph-name="afii10091" unicode="&#x449;" horiz-adv-x="871" 
d="M804 495v-378h43v-27h18v-243h-127v27h-18v99h-621v27h-18v522h135v-27h18v-378h132v405h135v-27h18v-378h132v405h135v-27h18zM774 105v405h-111v-405h-174v405h-111v-405h-174v405h-111v-498h639v-126h103v219h-61z" />
    <glyph glyph-name="afii10092" unicode="&#x44a;" horiz-adv-x="581" 
d="M274 495v-162h70q76 0 120 -25.5t63 -63.5q19 -22 27.5 -49.5t8.5 -55.5q0 -35 -10 -65t-33.5 -52.5t-62 -35.5t-95.5 -13h-225v27h-18v378h-101v27h-18v117h256v-27h18zM274 200v-94h50q39 0 59 17t20 43q0 9 -3 16q-21 18 -58 18h-68zM244 321v189h-232v-93h119v-405
h213q54 0 90.5 11.5t58.5 32.5t31 49t9 61q0 29 -9.5 57t-31 49.5t-58 35t-90.5 13.5h-100zM244 94v145h80q45 0 68 -23.5t23 -49.5q0 -29 -24 -50.5t-67 -21.5h-80z" />
    <glyph glyph-name="afii10093" unicode="&#x44b;" horiz-adv-x="774" 
d="M556 522h137v-27h18v-522h-137v27h-18v522zM236 495v-162h55q77 0 120 -25.5t63 -63.5q19 -22 27.5 -49.5t8.5 -55.5q0 -35 -10 -65t-33.5 -52.5t-62 -35.5t-95.5 -13h-210v27h-18v522h137v-27h18zM236 200v-94h35q39 0 59 17t20 43q0 9 -3 16q-21 18 -58 18h-53z
M681 510h-113v-498h113v498zM206 321v189h-113v-498h198q54 0 90.5 11.5t58.5 32.5t31 49t9 61q0 29 -9.5 57t-31 49.5t-58 35t-90.5 13.5h-85zM206 94v145h65q45 0 68 -23.5t23 -49.5q0 -29 -24 -50.5t-67 -21.5h-65z" />
    <glyph glyph-name="afii10094" unicode="&#x44c;" horiz-adv-x="546" 
d="M239 495v-162h70q77 0 120 -25.5t63 -63.5q19 -22 27.5 -49.5t8.5 -55.5q0 -35 -10 -65t-33.5 -52.5t-62 -35.5t-95.5 -13h-225v27h-18v522h137v-27h18zM239 200v-94h50q39 0 59 17t20 43q0 9 -3 16q-21 18 -58 18h-68zM209 321v189h-113v-498h213q54 0 90.5 11.5
t58.5 32.5t31 49t9 61q0 29 -9.5 57t-31 49.5t-58 35t-90.5 13.5h-100zM209 94v145h80q45 0 68 -23.5t23 -49.5q0 -29 -24 -50.5t-67 -21.5h-80z" />
    <glyph glyph-name="afii10095" unicode="&#x44d;" horiz-adv-x="512" 
d="M486 233q0 -132 -76 -205t-209 -73q-37 0 -72.5 8.5t-71.5 24.5v20q-5 2 -9 3.5t-9 3.5v125q34 -27 70.5 -35.5t64.5 -8.5q56 0 91 24t49 68h-178v27h-18v106h200q-2 9 -5.5 17t-7.5 16q-19 22 -47 34.5t-66 12.5q-28 0 -64.5 -9t-70.5 -29v37q-5 -2 -9 -5t-9 -5v119
q35 16 71.5 24.5t72.5 8.5q87 0 150 -32.5t97 -92.5q56 -71 56 -184zM456 260q0 127 -71.5 198.5t-201.5 71.5q-35 0 -69 -8t-63 -21v-90q22 13 58.5 21t64.5 8q62 0 103 -34.5t57 -96.5h-204v-82h205q-25 -143 -161 -143q-28 0 -65 7t-58 24v-92q30 -13 63.5 -21t68.5 -8
q130 0 201.5 69t71.5 197z" />
    <glyph glyph-name="afii10096" unicode="&#x44e;" horiz-adv-x="881" 
d="M580 -46q-78 0 -138 36t-95 94q-35 46 -50 102h-61v-213h-137v27h-18v522h137v-27h18v-174h57q9 47 32.5 87.5t58.5 70.5t80 47t98 17q78 0 139 -35.5t96 -94.5q29 -37 44.5 -82.5t15.5 -95.5q0 -57 -20.5 -108.5t-57 -89.5t-87.5 -60.5t-112 -22.5zM446 235q0 -25 5 -47
t13 -39q36 -42 98 -42q56 0 94.5 39t38.5 116q0 51 -19 87q-36 41 -96 41q-56 0 -95 -39t-39 -116zM562 -7q59 0 108 21t84 58t54 85.5t19 104.5t-19 104.5t-54 85.5t-84 58t-108 21q-51 0 -94 -16.5t-76.5 -45.5t-56 -70t-32.5 -90h-97v201h-113v-498h113v213h95
q8 -51 30.5 -93.5t56 -73.5t78 -48t96.5 -17zM416 262q0 81 43 124t103 43t102.5 -43t42.5 -124t-42.5 -124t-102.5 -43t-103 43t-43 124z" />
    <glyph glyph-name="afii10097" unicode="&#x44f;" horiz-adv-x="546" 
d="M328 0v158h-29l-117 -185h-154l19 27h-37l131 190q-42 23 -63 64q-35 41 -35 100q0 34 12 64.5t37 53.5t64.5 36.5t94.5 13.5h214v-27h18v-522h-137v27h-18zM328 281v106h-36q-42 0 -65.5 -15t-23.5 -48q0 -6 1.5 -12t2.5 -11q23 -20 67 -20h54zM340 197v-185h113v498
h-202q-53 0 -90 -12.5t-60.5 -33.5t-34.5 -49.5t-11 -60.5q0 -53 29.5 -88t85.5 -56l-137 -198h124l117 185h66zM340 426v-157h-66q-44 0 -72.5 22t-28.5 60t28.5 56.5t72.5 18.5h66z" />
    <glyph glyph-name="afii10071" unicode="&#x451;" horiz-adv-x="642" 
d="M342 404q-32 0 -61.5 -16t-49.5 -45h223q-2 4 -4 7t-3 6q-40 48 -105 48zM621 228h-417q0 -52 18 -89q17 -19 42.5 -30.5t59.5 -11.5q56 0 84 20.5t43 61.5h142q-2 -7 -4.5 -13.5t-5.5 -13.5h28q-36 -105 -99.5 -152t-169.5 -47q-86 0 -147 36t-95 94q-58 75 -58 178
q0 57 21.5 108.5t59 89.5t89 60.5t112.5 22.5q80 0 142.5 -32t97.5 -94q27 -35 42 -82.5t15 -105.5zM355 679q0 31 22 53t53 22q24 0 43 -13.5t27 -34.5q23 -23 23 -54t-21.5 -53t-53.5 -22q-24 0 -43 13.5t-27 34.5q-23 23 -23 54zM143 679q0 31 22 53t53 22q24 0 43 -13.5
t27 -34.5q23 -23 23 -54t-21.5 -53t-53.5 -22q-24 0 -43 13.5t-27 34.5q-23 23 -23 54zM324 443q47 0 85 -27t64 -85h-293q25 58 64 85t80 27zM174 267h417q0 62 -19.5 111t-54.5 82.5t-84.5 51.5t-108.5 18t-108.5 -21t-85.5 -58t-56 -86t-20 -104t17.5 -104t52 -85.5
t85 -58t115.5 -21.5q104 0 162.5 42t89.5 133h-117q-13 -37 -44.5 -59.5t-90.5 -22.5q-74 0 -112 51t-38 131zM367 679q0 -27 18 -45t45 -18q28 0 45.5 18t17.5 45t-17.5 45t-45.5 18q-27 0 -45 -18t-18 -45zM155 679q0 -27 18 -45t45 -18q28 0 45.5 18t17.5 45t-17.5 45
t-45.5 18q-27 0 -45 -18t-18 -45z" />
    <glyph glyph-name="endash" unicode="&#x2013;" horiz-adv-x="500" 
d="M-6 229v96h512v-27h18v-96h-512v27h-18zM6 313v-72h488v72h-488z" />
    <glyph glyph-name="emdash" unicode="&#x2014;" horiz-adv-x="1000" 
d="M1024 202h-1012v27h-18v96h1012v-27h18v-96zM6 241h988v72h-988v-72z" />
    <glyph glyph-name="quoteleft" unicode="&#x2018;" horiz-adv-x="288" 
d="M272 727l-64 -274h-166l13 27h-31l128 274h102l-6 -27h24zM180 492l59 250h-79l-117 -250h137z" />
    <glyph glyph-name="quoteright" unicode="&#x2019;" horiz-adv-x="288" 
d="M24 480l64 274h166l-13 -27h31l-128 -274h-102l6 27h-24zM98 742l-59 -250h79l117 250h-137z" />
    <glyph glyph-name="quotesinglbase" unicode="&#x201a;" horiz-adv-x="288" 
d="M29 -126l64 274h166l-13 -27h31l-128 -274h-102l6 27h-24zM103 136l-59 -250h79l117 250h-137z" />
    <glyph glyph-name="quotedblleft" unicode="&#x201c;" horiz-adv-x="500" 
d="M498 727l-64 -274h-166l13 27h-31l128 274h102l-6 -27h24zM272 727l-64 -274h-166l13 27h-31l128 274h102l-6 -27h24zM406 492l59 250h-79l-117 -250h137zM180 492l59 250h-79l-117 -250h137z" />
    <glyph glyph-name="quotedblright" unicode="&#x201d;" horiz-adv-x="500" 
d="M24 480l64 274h166l-13 -27h31l-128 -274h-102l6 27h-24zM250 480l64 274h166l-13 -27h31l-128 -274h-102l6 27h-24zM98 742l-59 -250h79l117 250h-137zM324 742l-59 -250h79l117 250h-137z" />
    <glyph glyph-name="quotedblbase" unicode="&#x201e;" horiz-adv-x="500" 
d="M24 -126l64 274h166l-13 -27h31l-128 -274h-102l6 27h-24zM250 -126l64 274h166l-13 -27h31l-128 -274h-102l6 27h-24zM98 136l-59 -250h79l117 250h-137zM324 136l-59 -250h79l117 250h-137z" />
    <glyph glyph-name="dagger" unicode="&#x2020;" 
d="M417 -243h-168v27h-18v534h-147v27h-18v144h165v235h168v-27h18v-208h147v-27h18v-144h-165v-561zM243 -204h144v561h165v120h-165v235h-144v-235h-165v-120h165v-561z" />
    <glyph glyph-name="bullet" unicode="&#x2022;" horiz-adv-x="604" 
d="M154 381q0 31 11.5 57.5t32 46.5t47.5 31.5t57 11.5q43 0 78 -22.5t54 -58.5q16 -19 25 -43t9 -50q0 -30 -12 -57.5t-32 -47.5t-47.5 -32t-57.5 -12q-42 0 -76 21.5t-53 56.5q-36 41 -36 98zM166 381q0 -57 38.5 -97t96.5 -40q29 0 53.5 10.5t43.5 29.5t29.5 43.5
t10.5 53.5q0 28 -10.5 52.5t-29 43t-43.5 29t-53 10.5q-57 0 -96.5 -38.5t-39.5 -96.5z" />
    <glyph glyph-name="ellipsis" unicode="&#x2026;" horiz-adv-x="1024" 
d="M84 70q0 36 25.5 62t60.5 26q26 0 47 -15t31 -37q26 -26 26 -63q0 -35 -25 -59.5t-61 -24.5q-27 0 -48.5 15t-31.5 38q-24 24 -24 58zM424 70q0 36 25.5 62t60.5 26q26 0 47 -15t31 -37q26 -26 26 -63q0 -35 -25 -59.5t-61 -24.5q-27 0 -48.5 15t-31.5 38q-24 24 -24 58z
M766 70q0 36 25.5 62t60.5 26q26 0 47 -15t31 -37q26 -26 26 -63q0 -35 -25 -59.5t-61 -24.5q-27 0 -48.5 15t-31.5 38q-24 24 -24 58zM96 70q0 -31 21 -51.5t53 -20.5t53 20t21 52t-21 54t-53 22t-53 -22t-21 -54zM436 70q0 -31 21 -51.5t53 -20.5t53 20t21 52t-21 54
t-53 22t-53 -22t-21 -54zM778 70q0 -31 21 -51.5t53 -20.5t53 20t21 52t-21 54t-53 22t-53 -22t-21 -54z" />
    <glyph glyph-name="perthousand" unicode="&#x2030;" horiz-adv-x="1245" 
d="M378 511q0 -96 -44 -149.5t-123 -53.5q-98 0 -142 81q-45 54 -45 149q0 94 45 148t124 54q98 0 140 -78q45 -52 45 -151zM145 511q0 -57 14 -91q14 -14 34 -14q65 0 65 132q0 57 -14 91q-14 12 -33 12q-31 0 -48.5 -33.5t-17.5 -96.5zM700 713l-453 -760h-72l16 27h-34
l453 760h72l-16 -27h34zM835 157q0 -96 -44.5 -150t-124.5 -54q-49 0 -84.5 21t-56.5 59q-46 54 -46 151q0 94 45 147.5t124 53.5q99 0 142 -78q45 -53 45 -150zM600 155q0 -56 14 -90q13 -13 34 -13q67 0 67 132q0 56 -14 90q-14 13 -35 13q-32 0 -49 -34.5t-17 -97.5z
M1239 157q0 -96 -44.5 -150t-124.5 -54q-49 0 -84.5 21t-56.5 59q-46 54 -46 151q0 94 45 147.5t124 53.5q99 0 142 -78q45 -53 45 -150zM1004 155q0 -56 14 -90q13 -13 34 -13q68 0 68 132q0 56 -13 88q-15 15 -37 15q-32 0 -49 -34.5t-17 -97.5zM348 538q0 93 -39.5 141.5
t-115.5 48.5q-74 0 -115.5 -49t-41.5 -141q0 -93 41 -142t116 -49t115 49t40 142zM115 538q0 65 20.5 103.5t57.5 38.5t57 -38.5t20 -103.5q0 -67 -19.5 -105.5t-57.5 -38.5q-37 0 -57.5 39.5t-20.5 104.5zM222 -8l439 736h-44l-439 -736h44zM805 184q0 93 -40.5 141
t-116.5 48q-74 0 -115.5 -48.5t-41.5 -140.5q0 -93 41 -142.5t116 -49.5t116 49.5t41 142.5zM570 182q0 65 20.5 104.5t57.5 39.5q38 0 58.5 -38.5t20.5 -103.5q0 -67 -20.5 -105.5t-58.5 -38.5q-37 0 -57.5 39t-20.5 103zM1209 184q0 93 -40.5 141t-116.5 48
q-74 0 -115.5 -48.5t-41.5 -140.5q0 -93 41 -142.5t116 -49.5t116 49.5t41 142.5zM974 182q0 65 20.5 104.5t57.5 39.5q38 0 59 -38.5t21 -103.5q0 -67 -21 -105.5t-59 -38.5q-37 0 -57.5 39t-20.5 103z" />
    <glyph glyph-name="quilsinglleft" unicode="&#x2039;" horiz-adv-x="375" 
d="M324 423l-95 -180l95 -180h-118l-138 207l120 180h118l-14 -27h32zM197 270l89 168h-92l-112 -168l112 -168h92z" />
    <glyph glyph-name="quilsinglright" unicode="&#x203a;" horiz-adv-x="375" 
d="M69 450h118l138 -207l-120 -180h-118l14 27h-32l95 180zM181 438h-92l89 -168l-89 -168h92l112 168z" />
    <glyph glyph-name="afii61352" unicode="&#x2116;" horiz-adv-x="1183" 
d="M88 0v768l478 -458v423h137v-27h18v-769l-478 459v-423h-137v27h-18zM1147 332q0 -86 -46.5 -135t-129.5 -49q-111 0 -155 84q-39 48 -39 127q0 85 46.5 133t129.5 48q113 0 155 -82q39 -46 39 -126zM902 330q0 -36 8 -60q15 -14 43 -14q34 0 52 22t18 81q0 40 -8 60
q-16 13 -44 13q-33 0 -51 -22.5t-18 -79.5zM1138 -27h-334v27h-18v117h334v-27h18v-117zM100 740v-728h113v439l478 -459v729h-113v-439zM1117 359q0 83 -42 126t-122 43q-79 0 -121.5 -44t-42.5 -125q0 -83 42.5 -127.5t121.5 -44.5t121.5 44.5t42.5 127.5zM872 357
q0 61 22 87.5t59 26.5t59.5 -26t22.5 -86q0 -62 -22.5 -88.5t-59.5 -26.5t-59 26.5t-22 86.5zM798 12h310v93h-310v-93z" />
    <glyph glyph-name="trademark" unicode="&#x2122;" horiz-adv-x="954" 
d="M802 408h-49v279l-105 -279h-31l-111 279v-279h-49v324h78l97 -248l92 248h78v-324zM381 691h-104v-283h-55v283h-106v41h265v-41z" />
    <glyph glyph-name="minus" unicode="&#x2212;" horiz-adv-x="853" 
d="M127 278v100h599v-27h18v-100h-599v27h-18zM139 366v-76h575v76h-575z" />
    <glyph glyph-name="periodcentered" unicode="&#x2219;" horiz-adv-x="314" 
d="M70 360q0 36 25.5 61t60.5 25q27 0 48 -14.5t31 -37.5q25 -25 25 -61q0 -35 -25 -60.5t-61 -25.5q-26 0 -47.5 15t-31.5 38q-25 25 -25 60zM82 360q0 -31 21 -52.5t53 -21.5t53 21t21 53t-21 53t-53 21t-53 -21t-21 -53z" />
    </font>
</defs>
</svg>
